<svg width="231" height="134" viewBox="0 0 231 134" fill="none" xmlns="http://www.w3.org/2000/svg">
<path d="M55.0286 124.761V123.892H58.6199V124.761L57.5006 124.953V128.395H62.3486V124.953L61.2293 124.761V123.892H64.8206V124.761L63.7013 124.953V132.802L64.8206 132.994V133.856H61.2293V132.994L62.3486 132.802V129.456H57.5006V132.802L58.6199 132.994V133.856H55.0286V132.994L56.1479 132.802V124.953L55.0286 124.761Z" fill="#999591"/>
<path d="M70.8084 133.856C70.7672 133.656 70.7352 133.475 70.7123 133.316C70.6894 133.156 70.6734 132.996 70.6642 132.837C70.4033 133.17 70.076 133.448 69.6823 133.672C69.2932 133.891 68.8766 134 68.4325 134C67.6589 134 67.0706 133.813 66.6678 133.439C66.2649 133.06 66.0635 132.529 66.0635 131.844C66.0635 131.142 66.3473 130.601 66.915 130.222C67.4872 129.839 68.27 129.647 69.2634 129.647H70.6574V128.785C70.6574 128.352 70.52 128.01 70.2454 127.759C69.9707 127.503 69.5884 127.375 69.0986 127.375C68.7598 127.375 68.46 127.419 68.1991 127.505C67.9427 127.592 67.7344 127.711 67.5742 127.861L67.43 128.641H66.3862V127.204C66.725 126.935 67.1347 126.721 67.6154 126.561C68.0961 126.397 68.6179 126.315 69.181 126.315C70.0233 126.315 70.7054 126.529 71.2273 126.958C71.7492 127.387 72.0101 128 72.0101 128.799V132.364C72.0101 132.46 72.0101 132.554 72.0101 132.645C72.0147 132.736 72.0216 132.827 72.0307 132.919L72.5801 132.994V133.856H70.8084ZM68.6317 132.871C69.0803 132.871 69.49 132.764 69.8608 132.549C70.2316 132.335 70.4971 132.077 70.6574 131.776V130.558H69.2153C68.6614 130.558 68.2219 130.685 67.8969 130.941C67.5765 131.196 67.4162 131.507 67.4162 131.872C67.4162 132.196 67.517 132.444 67.7184 132.618C67.9198 132.786 68.2242 132.871 68.6317 132.871Z" fill="#999591"/>
<path d="M73.7062 132.994L74.8255 132.802V127.512L73.7062 127.321V126.451H76.1783V132.802L77.2975 132.994V133.856H73.7062V132.994ZM76.1783 124.556H74.8255V123.18H76.1783V124.556Z" fill="#999591"/>
<path d="M78.3344 127.321V126.451H80.6623L80.7927 127.526C81.0033 127.147 81.262 126.851 81.5687 126.636C81.88 126.422 82.2348 126.315 82.633 126.315C82.7383 126.315 82.8459 126.324 82.9558 126.342C83.0702 126.356 83.1572 126.372 83.2167 126.39L83.0382 127.642L82.2691 127.601C81.912 127.601 81.6122 127.686 81.3695 127.854C81.1269 128.019 80.9392 128.251 80.8065 128.552V132.802L81.9258 132.994V133.856H78.3344V132.994L79.4537 132.802V127.512L78.3344 127.321Z" fill="#999591"/>
<path d="M87.3574 132.946C87.806 132.946 88.1997 132.809 88.5385 132.535C88.8818 132.257 89.0535 131.917 89.0535 131.516H90.2689L90.2826 131.557C90.3055 132.196 90.0194 132.764 89.4243 133.261C88.8337 133.754 88.1448 134 87.3574 134C86.277 134 85.4507 133.649 84.8785 132.946C84.3108 132.243 84.027 131.361 84.027 130.298V130.01C84.027 128.956 84.3131 128.078 84.8853 127.375C85.4576 126.668 86.2816 126.315 87.3574 126.315C87.9525 126.315 88.4858 126.413 88.9573 126.609C89.4334 126.805 89.8271 127.074 90.1384 127.416L90.2002 129.059H89.1221L88.8269 127.895C88.6667 127.74 88.4606 127.615 88.2089 127.519C87.9571 127.423 87.6733 127.375 87.3574 127.375C86.6478 127.375 86.1397 127.631 85.833 128.142C85.5308 128.648 85.3798 129.271 85.3798 130.01V130.298C85.3798 131.055 85.5308 131.687 85.833 132.193C86.1351 132.695 86.6432 132.946 87.3574 132.946Z" fill="#999591"/>
<path d="M96.9159 132.761C96.6825 133.158 96.3803 133.464 96.0095 133.678C95.6433 133.893 95.2199 134 94.7392 134C93.9335 134 93.304 133.742 92.8508 133.227C92.3976 132.711 92.171 131.908 92.171 130.818V127.512L91.3195 127.321V126.451H93.5238V130.831C93.5238 131.621 93.6405 132.164 93.874 132.46C94.1074 132.757 94.4714 132.905 94.9658 132.905C95.4465 132.905 95.8424 132.809 96.1537 132.618C96.4696 132.421 96.7077 132.145 96.8679 131.79V127.512L95.8722 127.321V126.451H98.2206V132.802L99.0721 132.994V133.856H97.0052L96.9159 132.761Z" fill="#999591"/>
<path d="M102.506 124.665V126.451H103.913V127.451H102.506V131.947C102.506 132.294 102.576 132.538 102.718 132.679C102.865 132.821 103.057 132.891 103.295 132.891C103.414 132.891 103.547 132.882 103.693 132.864C103.845 132.841 103.97 132.818 104.071 132.796L104.257 133.719C104.128 133.802 103.941 133.868 103.693 133.918C103.446 133.973 103.199 134 102.952 134C102.403 134 101.965 133.836 101.64 133.507C101.315 133.174 101.153 132.654 101.153 131.947V127.451H99.9785V126.451H101.153V124.665H102.506Z" fill="#999591"/>
<path d="M110.979 128.778H109.963L109.743 127.889C109.578 127.733 109.37 127.61 109.118 127.519C108.871 127.423 108.589 127.375 108.274 127.375C107.793 127.375 107.436 127.48 107.202 127.69C106.969 127.9 106.852 128.153 106.852 128.45C106.852 128.742 106.955 128.972 107.161 129.141C107.367 129.31 107.786 129.46 108.418 129.593C109.356 129.793 110.054 130.067 110.512 130.414C110.97 130.756 111.199 131.217 111.199 131.796C111.199 132.453 110.931 132.985 110.395 133.391C109.864 133.797 109.169 134 108.308 134C107.745 134 107.239 133.936 106.79 133.808C106.342 133.676 105.941 133.487 105.589 133.24L105.582 131.55H106.598L106.852 132.542C107.008 132.684 107.218 132.786 107.484 132.85C107.754 132.914 108.029 132.946 108.308 132.946C108.789 132.946 109.164 132.85 109.434 132.659C109.709 132.462 109.846 132.207 109.846 131.892C109.846 131.596 109.732 131.352 109.503 131.16C109.278 130.968 108.85 130.802 108.219 130.66C107.317 130.464 106.637 130.197 106.179 129.86C105.721 129.522 105.493 129.066 105.493 128.491C105.493 127.889 105.749 127.375 106.262 126.951C106.779 126.527 107.45 126.315 108.274 126.315C108.837 126.315 109.343 126.388 109.791 126.534C110.24 126.68 110.613 126.883 110.91 127.143L110.979 128.778Z" fill="#999591"/>
<path d="M115.861 131.174C115.861 130.617 116.022 130.131 116.342 129.716C116.667 129.296 117.15 128.876 117.791 128.457C117.434 128.005 117.168 127.603 116.994 127.252C116.82 126.896 116.733 126.531 116.733 126.157C116.733 125.386 116.956 124.793 117.4 124.378C117.848 123.958 118.464 123.748 119.247 123.748C119.97 123.748 120.558 123.956 121.011 124.371C121.465 124.786 121.691 125.286 121.691 125.87C121.691 126.317 121.57 126.705 121.327 127.033C121.089 127.357 120.735 127.69 120.263 128.032L119.515 128.58L121.849 131.379C122.037 131.082 122.183 130.754 122.289 130.393C122.394 130.033 122.447 129.652 122.447 129.251H123.655C123.655 129.848 123.566 130.403 123.387 130.914C123.209 131.425 122.95 131.883 122.611 132.289L123.882 133.822L123.868 133.856H122.296L121.712 133.158C121.346 133.432 120.941 133.642 120.496 133.788C120.052 133.929 119.592 134 119.116 134C118.123 134 117.331 133.738 116.74 133.213C116.154 132.688 115.861 132.009 115.861 131.174ZM119.116 132.946C119.446 132.946 119.771 132.891 120.091 132.782C120.412 132.668 120.714 132.506 120.998 132.296L118.519 129.319L118.244 129.517C117.828 129.828 117.551 130.124 117.413 130.407C117.281 130.69 117.214 130.945 117.214 131.174C117.214 131.689 117.377 132.113 117.702 132.446C118.027 132.78 118.498 132.946 119.116 132.946ZM118.086 126.143C118.086 126.385 118.148 126.639 118.272 126.903C118.395 127.163 118.581 127.448 118.828 127.759L119.775 127.108C120.036 126.935 120.213 126.748 120.304 126.547C120.4 126.342 120.448 126.116 120.448 125.87C120.448 125.591 120.336 125.345 120.112 125.131C119.892 124.916 119.604 124.809 119.247 124.809C118.876 124.809 118.59 124.939 118.388 125.199C118.187 125.455 118.086 125.769 118.086 126.143Z" fill="#999591"/>
<path d="M135.439 126.835H134.415L134.161 125.411C133.955 125.238 133.681 125.094 133.337 124.98C132.994 124.866 132.596 124.809 132.143 124.809C131.424 124.809 130.872 124.962 130.488 125.267C130.103 125.569 129.911 125.963 129.911 126.451C129.911 126.885 130.105 127.248 130.495 127.54C130.888 127.827 131.522 128.08 132.397 128.299C133.45 128.559 134.248 128.943 134.793 129.449C135.342 129.955 135.617 130.583 135.617 131.331C135.617 132.134 135.288 132.78 134.628 133.268C133.974 133.756 133.115 134 132.053 134C131.284 134 130.6 133.875 130 133.624C129.405 133.373 128.92 133.044 128.544 132.638V130.783H129.561L129.822 132.214C130.083 132.428 130.394 132.604 130.755 132.741C131.117 132.878 131.55 132.946 132.053 132.946C132.735 132.946 133.273 132.802 133.667 132.515C134.065 132.228 134.264 131.837 134.264 131.345C134.264 130.888 134.093 130.507 133.749 130.202C133.406 129.892 132.799 129.631 131.93 129.422C130.872 129.171 130.046 128.801 129.451 128.313C128.856 127.825 128.558 127.211 128.558 126.472C128.558 125.692 128.89 125.044 129.554 124.528C130.218 124.008 131.08 123.748 132.143 123.748C132.843 123.748 133.479 123.869 134.052 124.111C134.628 124.348 135.091 124.638 135.439 124.98V126.835Z" fill="#999591"/>
<path d="M136.709 132.994L137.828 132.802V124.241L136.709 124.049V123.18H139.181V127.437C139.437 127.081 139.751 126.805 140.122 126.609C140.493 126.413 140.905 126.315 141.358 126.315C142.154 126.315 142.772 126.552 143.212 127.026C143.651 127.501 143.871 128.231 143.871 129.216V132.802L144.99 132.994V133.856H141.399V132.994L142.518 132.802V129.203C142.518 128.591 142.386 128.14 142.12 127.848C141.859 127.556 141.468 127.41 140.946 127.41C140.575 127.41 140.236 127.499 139.929 127.676C139.627 127.85 139.378 128.087 139.181 128.388V132.802L140.3 132.994V133.856H136.709V132.994Z" fill="#999591"/>
<path d="M150.82 133.856C150.779 133.656 150.747 133.475 150.724 133.316C150.701 133.156 150.685 132.996 150.676 132.837C150.415 133.17 150.088 133.448 149.694 133.672C149.305 133.891 148.888 134 148.444 134C147.671 134 147.082 133.813 146.68 133.439C146.277 133.06 146.075 132.529 146.075 131.844C146.075 131.142 146.359 130.601 146.927 130.222C147.499 129.839 148.282 129.647 149.275 129.647H150.669V128.785C150.669 128.352 150.532 128.01 150.257 127.759C149.982 127.503 149.6 127.375 149.11 127.375C148.772 127.375 148.472 127.419 148.211 127.505C147.954 127.592 147.746 127.711 147.586 127.861L147.442 128.641H146.398V127.204C146.737 126.935 147.146 126.721 147.627 126.561C148.108 126.397 148.63 126.315 149.193 126.315C150.035 126.315 150.717 126.529 151.239 126.958C151.761 127.387 152.022 128 152.022 128.799V132.364C152.022 132.46 152.022 132.554 152.022 132.645C152.026 132.736 152.033 132.827 152.042 132.919L152.592 132.994V133.856H150.82ZM148.643 132.871C149.092 132.871 149.502 132.764 149.873 132.549C150.243 132.335 150.509 132.077 150.669 131.776V130.558H149.227C148.673 130.558 148.234 130.685 147.909 130.941C147.588 131.196 147.428 131.507 147.428 131.872C147.428 132.196 147.529 132.444 147.73 132.618C147.932 132.786 148.236 132.871 148.643 132.871Z" fill="#999591"/>
<path d="M156.156 127.321L155.263 127.457L156.794 131.673L156.918 132.207H156.959L157.09 131.673L158.573 127.457L157.673 127.321V126.451H160.544V127.321L159.932 127.423L157.44 133.856H156.417L153.897 127.423L153.285 127.321V126.451H156.156V127.321Z" fill="#999591"/>
<path d="M164.76 134C163.725 134 162.901 133.658 162.288 132.973C161.679 132.285 161.374 131.393 161.374 130.298V129.996C161.374 128.943 161.688 128.067 162.315 127.368C162.947 126.666 163.693 126.315 164.554 126.315C165.552 126.315 166.307 126.616 166.82 127.218C167.337 127.82 167.596 128.623 167.596 129.627V130.469H162.775L162.755 130.503C162.768 131.215 162.949 131.801 163.297 132.262C163.645 132.718 164.133 132.946 164.76 132.946C165.218 132.946 165.618 132.882 165.961 132.754C166.309 132.622 166.609 132.442 166.861 132.214L167.39 133.09C167.124 133.345 166.772 133.562 166.332 133.74C165.897 133.913 165.373 134 164.76 134ZM164.554 127.375C164.101 127.375 163.714 127.567 163.393 127.95C163.073 128.329 162.876 128.806 162.803 129.381L162.816 129.415H166.243V129.237C166.243 128.708 166.101 128.265 165.817 127.909C165.533 127.553 165.112 127.375 164.554 127.375Z" fill="#999591"/>
<path d="M174.62 128.778H173.604L173.384 127.889C173.22 127.733 173.011 127.61 172.76 127.519C172.512 127.423 172.231 127.375 171.915 127.375C171.434 127.375 171.077 127.48 170.844 127.69C170.61 127.9 170.494 128.153 170.494 128.45C170.494 128.742 170.597 128.972 170.803 129.141C171.009 129.31 171.427 129.46 172.059 129.593C172.998 129.793 173.696 130.067 174.154 130.414C174.611 130.756 174.84 131.217 174.84 131.796C174.84 132.453 174.572 132.985 174.037 133.391C173.506 133.797 172.81 134 171.949 134C171.386 134 170.88 133.936 170.432 133.808C169.983 133.676 169.583 133.487 169.23 133.24L169.223 131.55H170.239L170.494 132.542C170.649 132.684 170.86 132.786 171.125 132.85C171.395 132.914 171.67 132.946 171.949 132.946C172.43 132.946 172.805 132.85 173.075 132.659C173.35 132.462 173.487 132.207 173.487 131.892C173.487 131.596 173.373 131.352 173.144 131.16C172.92 130.968 172.492 130.802 171.86 130.66C170.958 130.464 170.278 130.197 169.821 129.86C169.363 129.522 169.134 129.066 169.134 128.491C169.134 127.889 169.39 127.375 169.903 126.951C170.42 126.527 171.091 126.315 171.915 126.315C172.478 126.315 172.984 126.388 173.433 126.534C173.881 126.68 174.254 126.883 174.552 127.143L174.62 128.778Z" fill="#999591"/>
<path d="M83.1411 9.10207L83.8827 8.99942L87.3779 0H88.5384L91.9718 8.99942L92.7065 9.10207V9.96438H89.8362V9.10207L90.5916 8.97205L89.9324 7.13794H85.929L85.2492 8.97205L86.0046 9.10207V9.96438H83.1411V9.10207ZM86.3479 6.00874H89.5204L87.9685 1.73145H87.9273L86.3479 6.00874Z" fill="#999591"/>
<path d="M95.4601 3.42868L94.6086 3.57924L95.5769 7.26797L95.7348 8.16449H95.776L95.9683 7.26797L97.4515 2.55953H98.5364L100.027 7.26797L100.239 8.26715H100.281L100.48 7.26797L101.393 3.57924L100.528 3.42868V2.55953H103.357V3.42868L102.711 3.52449L100.837 9.96438H99.745L98.303 5.4544L97.994 4.20885L97.9528 4.2157L97.6644 5.4544L96.2498 9.96438H95.158L93.2834 3.52449L92.631 3.42868V2.55953H95.4601V3.42868Z" fill="#999591"/>
<path d="M107.848 10.1081C106.813 10.1081 105.989 9.76591 105.376 9.08154C104.767 8.39261 104.462 7.50066 104.462 6.40567V6.10455C104.462 5.05062 104.776 4.17464 105.403 3.47658C106.035 2.77397 106.781 2.42266 107.642 2.42266C108.64 2.42266 109.395 2.72378 109.908 3.32602C110.425 3.92826 110.684 4.73125 110.684 5.73499V6.57676H105.863L105.843 6.61098C105.856 7.32272 106.037 7.909 106.385 8.3698C106.733 8.82605 107.221 9.05417 107.848 9.05417C108.306 9.05417 108.706 8.99029 109.049 8.86255C109.397 8.73024 109.697 8.55002 109.949 8.3219L110.478 9.19789C110.212 9.45338 109.86 9.6701 109.42 9.84803C108.985 10.0214 108.461 10.1081 107.848 10.1081ZM107.642 3.48343C107.189 3.48343 106.802 3.67505 106.481 4.05829C106.161 4.43698 105.964 4.91375 105.891 5.48862L105.905 5.52284H109.331V5.3449C109.331 4.81566 109.189 4.3731 108.905 4.01723C108.621 3.66136 108.2 3.48343 107.642 3.48343Z" fill="#999591"/>
<path d="M117.709 4.88638H116.692L116.472 3.9967C116.308 3.84158 116.099 3.71839 115.848 3.62714C115.6 3.53133 115.319 3.48343 115.003 3.48343C114.522 3.48343 114.165 3.58836 113.932 3.79823C113.698 4.00811 113.582 4.26132 113.582 4.55788C113.582 4.84988 113.685 5.08028 113.891 5.24909C114.097 5.4179 114.515 5.56846 115.147 5.70077C116.086 5.90152 116.784 6.17527 117.242 6.52201C117.699 6.8642 117.928 7.325 117.928 7.90443C117.928 8.56143 117.66 9.09295 117.125 9.49901C116.594 9.90506 115.898 10.1081 115.037 10.1081C114.474 10.1081 113.968 10.0442 113.52 9.91647C113.071 9.78416 112.671 9.59482 112.318 9.34845L112.311 7.65806H113.327L113.582 8.65039C113.737 8.79183 113.948 8.89448 114.213 8.95836C114.483 9.02223 114.758 9.05417 115.037 9.05417C115.518 9.05417 115.893 8.95836 116.163 8.76674C116.438 8.57055 116.575 8.31505 116.575 8.00024C116.575 7.70369 116.461 7.4596 116.232 7.26797C116.008 7.07635 115.58 6.90982 114.948 6.76838C114.046 6.5722 113.366 6.3053 112.909 5.96768C112.451 5.63006 112.222 5.17381 112.222 4.59894C112.222 3.9967 112.478 3.48343 112.991 3.05912C113.508 2.63481 114.179 2.42266 115.003 2.42266C115.566 2.42266 116.072 2.49566 116.521 2.64165C116.969 2.78765 117.342 2.99068 117.64 3.25074L117.709 4.88638Z" fill="#999591"/>
<path d="M119.199 6.19352C119.199 5.09853 119.496 4.19745 120.091 3.49027C120.686 2.77853 121.494 2.42266 122.515 2.42266C123.541 2.42266 124.351 2.77625 124.946 3.48343C125.546 4.1906 125.846 5.09397 125.846 6.19352V6.34408C125.846 7.44819 125.548 8.35155 124.953 9.05417C124.358 9.75679 123.55 10.1081 122.529 10.1081C121.499 10.1081 120.686 9.75679 120.091 9.05417C119.496 8.34699 119.199 7.44363 119.199 6.34408V6.19352ZM120.551 6.34408C120.551 7.12882 120.716 7.77668 121.046 8.28768C121.38 8.79867 121.874 9.05417 122.529 9.05417C123.17 9.05417 123.657 8.79867 123.992 8.28768C124.326 7.77668 124.493 7.12882 124.493 6.34408V6.19352C124.493 5.4179 124.326 4.77232 123.992 4.25676C123.657 3.7412 123.165 3.48343 122.515 3.48343C121.865 3.48343 121.375 3.7412 121.046 4.25676C120.716 4.77232 120.551 5.4179 120.551 6.19352V6.34408Z" fill="#999591"/>
<path d="M126.821 9.10207L127.94 8.91045V3.6203L126.821 3.42868V2.55953H129.155L129.245 3.52449C129.483 3.17318 129.789 2.90171 130.165 2.71009C130.54 2.51847 130.975 2.42266 131.47 2.42266C131.964 2.42266 132.387 2.53672 132.74 2.76484C133.097 2.99296 133.365 3.33515 133.543 3.79139C133.777 3.37165 134.086 3.03859 134.47 2.79222C134.855 2.54584 135.303 2.42266 135.816 2.42266C136.576 2.42266 137.176 2.68272 137.615 3.20284C138.055 3.71839 138.275 4.49629 138.275 5.53653V8.91045L139.394 9.10207V9.96438H135.796V9.10207L136.915 8.91045V5.52284C136.915 4.79285 136.789 4.27729 136.537 3.97617C136.285 3.67049 135.912 3.51764 135.418 3.51764C134.946 3.51764 134.566 3.68417 134.278 4.01723C133.994 4.34573 133.829 4.76091 133.784 5.26278V8.91045L134.903 9.10207V9.96438H131.312V9.10207L132.431 8.91045V5.52284C132.431 4.82935 132.3 4.32292 132.039 4.00354C131.783 3.67961 131.41 3.51764 130.92 3.51764C130.508 3.51764 130.169 3.60205 129.904 3.77086C129.638 3.93967 129.435 4.17692 129.293 4.4826V8.91045L130.412 9.10207V9.96438H126.821V9.10207Z" fill="#999591"/>
<path d="M143.706 10.1081C142.672 10.1081 141.848 9.76591 141.234 9.08154C140.625 8.39261 140.321 7.50066 140.321 6.40567V6.10455C140.321 5.05062 140.634 4.17464 141.262 3.47658C141.893 2.77397 142.64 2.42266 143.5 2.42266C144.498 2.42266 145.253 2.72378 145.766 3.32602C146.283 3.92826 146.542 4.73125 146.542 5.73499V6.57676H141.722L141.701 6.61098C141.715 7.32272 141.896 7.909 142.244 8.3698C142.591 8.82605 143.079 9.05417 143.706 9.05417C144.164 9.05417 144.564 8.99029 144.908 8.86255C145.256 8.73024 145.556 8.55002 145.807 8.3219L146.336 9.19789C146.071 9.45338 145.718 9.6701 145.279 9.84803C144.844 10.0214 144.32 10.1081 143.706 10.1081ZM143.5 3.48343C143.047 3.48343 142.66 3.67505 142.34 4.05829C142.019 4.43698 141.822 4.91375 141.749 5.48862L141.763 5.52284H145.189V5.3449C145.189 4.81566 145.047 4.3731 144.764 4.01723C144.48 3.66136 144.059 3.48343 143.5 3.48343Z" fill="#999591"/>
<rect y="106.073" width="230.033" height="2.00226" fill="#FF9000"/>
<rect y="25.9824" width="230.033" height="2.00226" fill="#FF9000"/>
<path d="M53.2792 64.8024V78.8743C53.2792 80.0703 53.0355 81.2103 52.548 82.2942C52.0979 83.3407 51.4792 84.2564 50.6916 85.0413C49.9041 85.8262 48.9665 86.4429 47.879 86.8914C46.8289 87.3772 45.7039 87.6202 44.5038 87.6202C43.3038 87.6202 42.1787 87.3959 41.1287 86.9474C40.0786 86.4989 39.1598 85.9009 38.3723 85.1534C37.5847 84.3685 36.9472 83.4715 36.4597 82.4624C36.0097 81.4158 35.7659 80.2946 35.7284 79.0986V68.7268C35.6159 67.5682 35.0909 66.7273 34.1533 66.204C34.6783 65.9424 35.2034 65.8116 35.7284 65.8116V52.5806C35.7659 51.3846 36.0097 50.2633 36.4597 49.2168C36.9472 48.1703 37.5847 47.2733 38.3723 46.5258C39.1598 45.7409 40.0786 45.1242 41.1287 44.6757C42.1787 44.2272 43.3038 44.0029 44.5038 44.0029C45.7039 44.0029 46.8289 44.2459 47.879 44.7318C48.9665 45.1803 49.9041 45.797 50.6916 46.5818C51.4792 47.3667 52.0979 48.3011 52.548 49.385C53.0355 50.4315 53.2792 51.5715 53.2792 52.8049C53.2792 53.4403 53.3355 53.9074 53.448 54.2065C53.598 54.5055 53.748 54.7484 53.898 54.9353C54.048 55.1222 54.1793 55.2903 54.2918 55.4398C54.4418 55.5893 54.5168 55.8323 54.5168 56.1687H51.5917C50.9916 56.0939 50.6916 55.7762 50.6916 55.2156C50.6916 55.7762 50.3916 56.0939 49.7916 56.1687H46.8102C46.8102 55.8323 46.8664 55.5893 46.9789 55.4398C47.1289 55.2903 47.2789 55.1222 47.429 54.9353C47.579 54.7484 47.7102 54.5055 47.8227 54.2065C47.9727 53.9074 48.0477 53.4216 48.0477 52.7488V52.6927C48.0477 52.2069 48.029 51.6275 47.9915 50.9548C47.954 50.2446 47.8227 49.5719 47.5977 48.9365C47.3727 48.3011 47.0164 47.7592 46.5289 47.3107C46.0414 46.8622 45.3664 46.6379 44.5038 46.6379C43.6038 46.6379 42.91 46.8808 42.4225 47.3667C41.9724 47.8152 41.6349 48.3572 41.4099 48.9926C41.1849 49.6279 41.0537 50.3007 41.0161 51.0108C40.9786 51.721 40.9599 52.319 40.9599 52.8049V65.8116C41.4849 65.8116 42.0099 65.9424 42.535 66.204C41.5974 66.7273 41.0724 67.5682 40.9599 68.7268V78.8743C40.9599 79.3602 40.9786 79.9582 41.0161 80.6683C41.0537 81.3411 41.1849 82.0138 41.4099 82.6866C41.6349 83.322 41.9724 83.8639 42.4225 84.3124C42.91 84.761 43.6038 84.9852 44.5038 84.9852C45.4039 84.9852 46.0789 84.761 46.5289 84.3124C47.0164 83.8639 47.3727 83.322 47.5977 82.6866C47.8227 82.0138 47.954 81.3411 47.9915 80.6683C48.029 79.9582 48.0477 79.3602 48.0477 78.8743V67.3813C47.6352 67.4187 47.279 67.5869 46.9789 67.8859C46.7164 68.1849 46.5852 68.54 46.5852 68.9511V69.0072C46.5477 69.5678 46.3977 70.0537 46.1351 70.4648C45.9101 70.8386 45.5726 71.1749 45.1226 71.4739C44.6726 71.7356 44.0163 71.8664 43.1538 71.8664V64.8024H53.2792ZM38.766 63.1766C38.766 62.9523 38.7473 62.7281 38.7098 62.5038C38.7098 62.2796 38.7098 62.074 38.7098 61.8871V60.5977C38.6723 59.7754 38.6535 58.9905 38.6535 58.243C38.6535 57.4955 38.6348 56.7854 38.5973 56.1126C38.5598 55.7762 38.541 55.4772 38.541 55.2156C38.541 54.9166 38.5223 54.6176 38.4848 54.3186C38.4848 54.057 38.466 53.814 38.4285 53.5898C38.4285 53.3281 38.4285 53.1039 38.4285 52.917C38.4285 52.7301 38.4098 52.5619 38.3723 52.4124C38.3723 52.2629 38.3723 52.1321 38.3723 52.02V51.7397C38.3348 51.7397 38.316 51.7584 38.316 51.7957V52.02C38.316 52.1321 38.2973 52.2629 38.2598 52.4124C38.2598 52.5619 38.2598 52.7301 38.2598 52.917C38.2598 53.1039 38.241 53.3281 38.2035 53.5898C38.2035 53.814 38.2035 54.057 38.2035 54.3186C38.166 54.6176 38.1473 54.9166 38.1473 55.2156C38.1473 55.4772 38.1285 55.7762 38.091 56.1126C38.0535 56.7854 38.0348 57.4955 38.0348 58.243C38.0348 58.9905 38.016 59.7754 37.9785 60.5977V61.8871C37.9785 62.074 37.9598 62.2796 37.9223 62.5038C37.9223 62.7281 37.9223 62.9523 37.9223 63.1766V68.3905C37.9223 68.5026 37.9223 68.6147 37.9223 68.7268C37.9598 68.839 37.9785 68.9324 37.9785 69.0072V70.9133C37.9785 71.3244 37.9785 71.7356 37.9785 72.1467C38.016 72.5205 38.0348 72.8942 38.0348 73.268C38.0348 73.6791 38.0348 74.0715 38.0348 74.4453C38.0723 74.7817 38.091 75.0994 38.091 75.3984C38.1285 75.7348 38.1473 76.0525 38.1473 76.3515C38.1473 76.6505 38.166 76.9308 38.2035 77.1924C38.2035 77.4914 38.2035 77.753 38.2035 77.9773C38.241 78.2015 38.2598 78.4071 38.2598 78.594C38.2598 78.7809 38.2598 78.9491 38.2598 79.0986C38.2973 79.2481 38.316 79.3789 38.316 79.491V79.7713C38.316 79.8087 38.3348 79.8274 38.3723 79.8274V79.491C38.3723 79.3789 38.3723 79.2481 38.3723 79.0986C38.4098 78.9491 38.4285 78.7809 38.4285 78.594C38.4285 78.4071 38.4285 78.2015 38.4285 77.9773C38.466 77.753 38.4848 77.4914 38.4848 77.1924C38.5223 76.9308 38.541 76.6505 38.541 76.3515C38.541 76.0525 38.5598 75.7348 38.5973 75.3984C38.5973 75.0994 38.5973 74.7817 38.5973 74.4453C38.6348 74.0715 38.6535 73.6791 38.6535 73.268C38.6535 72.8942 38.6535 72.5205 38.6535 72.1467C38.691 71.7356 38.7098 71.3244 38.7098 70.9133V69.6799C38.7098 69.3809 38.7285 69.1567 38.766 69.0072V63.1766ZM51.0291 71.3058C50.9916 70.932 50.9729 70.5956 50.9729 70.2966C50.9729 69.9602 50.9541 69.6425 50.9166 69.3435C50.8791 68.7829 50.8229 68.3157 50.7479 67.942C50.7479 67.8672 50.7291 67.7925 50.6916 67.7177C50.6916 67.643 50.6916 67.5869 50.6916 67.5495V67.3813L50.6354 67.4374V67.5495C50.6354 67.5869 50.6166 67.643 50.5791 67.7177C50.5791 67.7925 50.5791 67.8672 50.5791 67.942C50.5041 68.3157 50.4479 68.7829 50.4103 69.3435C50.3728 69.6425 50.3541 69.9602 50.3541 70.2966C50.3541 70.5956 50.3353 70.932 50.2978 71.3058V71.8664C50.2978 71.9785 50.2791 72.0906 50.2416 72.2028C50.2416 72.2775 50.2416 72.3523 50.2416 72.427V74.7817C50.2416 74.8938 50.2603 74.9872 50.2978 75.062V75.9029C50.2978 76.0898 50.2978 76.258 50.2978 76.4075C50.3353 76.557 50.3541 76.7252 50.3541 76.9121C50.3541 77.099 50.3541 77.2672 50.3541 77.4167C50.3916 77.5662 50.4103 77.7157 50.4103 77.8652C50.4479 78.0147 50.4666 78.1642 50.4666 78.3137C50.4666 78.4258 50.4854 78.5379 50.5229 78.6501C50.5229 78.7622 50.5229 78.8743 50.5229 78.9864C50.5604 79.0986 50.5791 79.192 50.5791 79.2667C50.5791 79.3415 50.5791 79.4162 50.5791 79.491C50.6166 79.5658 50.6354 79.6218 50.6354 79.6592V79.7713C50.6354 79.8087 50.6541 79.8274 50.6916 79.8274V79.6592C50.6916 79.6218 50.6916 79.5658 50.6916 79.491C50.7291 79.4162 50.7479 79.3415 50.7479 79.2667C50.7479 79.192 50.7479 79.0986 50.7479 78.9864C50.7854 78.8743 50.8041 78.7622 50.8041 78.6501C50.8416 78.5379 50.8604 78.4258 50.8604 78.3137C50.8604 78.1642 50.8791 78.0147 50.9166 77.8652C50.9166 77.7157 50.9166 77.5662 50.9166 77.4167C50.9541 77.2672 50.9729 77.099 50.9729 76.9121C50.9729 76.7252 50.9729 76.557 50.9729 76.4075C51.0104 76.258 51.0291 76.0898 51.0291 75.9029V75.3423C51.0291 75.1928 51.0479 75.0994 51.0854 75.062V72.427C51.0854 72.3523 51.0666 72.2775 51.0291 72.2028C51.0291 72.0906 51.0291 71.9785 51.0291 71.8664V71.3058Z" fill="#F4EDE8"/>
<path d="M73.7148 65.8676C74.3523 65.8676 74.8773 65.9984 75.2899 66.2601C74.8773 66.5217 74.5211 66.8768 74.2211 67.3253C73.9585 67.7738 73.7898 68.2597 73.7148 68.7829V77.2485C73.6773 78.4445 73.4148 79.5658 72.9272 80.6123C72.4772 81.6214 71.8584 82.5184 71.0709 83.3033C70.2834 84.0508 69.3646 84.6488 68.3145 85.0973C67.2645 85.5458 66.1394 85.7701 64.9394 85.7701C63.7393 85.7701 62.6143 85.5458 61.5642 85.0973C60.5142 84.6488 59.5954 84.0508 58.8078 83.3033C58.0203 82.5184 57.3828 81.6214 56.8952 80.6123C56.4452 79.5658 56.2014 78.4445 56.1639 77.2485V68.7829C56.0514 67.6243 55.5264 66.7833 54.5889 66.2601C55.0014 65.9984 55.5264 65.8676 56.1639 65.8676V55.0474C56.2014 53.8888 56.4452 52.7862 56.8952 51.7397C57.3828 50.6932 58.0203 49.7961 58.8078 49.0486C59.5954 48.2637 60.5142 47.647 61.5642 47.1985C62.6143 46.75 63.7393 46.5258 64.9394 46.5258C66.1394 46.5258 67.2645 46.75 68.3145 47.1985C69.3646 47.647 70.2834 48.2637 71.0709 49.0486C71.8584 49.7961 72.4772 50.6932 72.9272 51.7397C73.4148 52.7862 73.6773 53.8888 73.7148 55.0474V65.8676ZM59.2016 63.8493C59.2016 63.6625 59.1828 63.4943 59.1453 63.3448C59.1453 63.1579 59.1453 62.971 59.1453 62.7841V61.7189C59.1078 61.0088 59.0891 60.336 59.0891 59.7007C59.0891 59.0653 59.0703 58.4673 59.0328 57.9066C58.9953 57.645 58.9766 57.3834 58.9766 57.1217C58.9766 56.8601 58.9578 56.6172 58.9203 56.3929C58.9203 56.1687 58.9016 55.9631 58.8641 55.7762C58.8641 55.5893 58.8641 55.4212 58.8641 55.2717C58.8641 55.0848 58.8453 54.9353 58.8078 54.8231C58.8078 54.6736 58.8078 54.5615 58.8078 54.4868V54.2065C58.7703 54.2065 58.7516 54.2251 58.7516 54.2625V54.4868C58.7516 54.5615 58.7328 54.6736 58.6953 54.8231C58.6953 54.9353 58.6953 55.0848 58.6953 55.2717C58.6953 55.4212 58.6766 55.5893 58.6391 55.7762C58.6391 55.9631 58.6391 56.1687 58.6391 56.3929C58.6016 56.6172 58.5828 56.8601 58.5828 57.1217C58.5828 57.3834 58.5641 57.645 58.5266 57.9066C58.4891 58.4673 58.4703 59.0653 58.4703 59.7007C58.4703 60.336 58.4516 61.0088 58.4141 61.7189V62.7841C58.4141 62.971 58.3953 63.1579 58.3578 63.3448C58.3578 63.4943 58.3578 63.6625 58.3578 63.8493V68.2783C58.3578 68.54 58.3766 68.7268 58.4141 68.839V70.4648C58.4141 70.8012 58.4141 71.1376 58.4141 71.4739C58.4516 71.8103 58.4703 72.128 58.4703 72.427C58.4703 72.7634 58.4703 73.0811 58.4703 73.3801C58.5078 73.6417 58.5266 73.922 58.5266 74.221C58.5641 74.5201 58.5828 74.8004 58.5828 75.062C58.5828 75.2863 58.6016 75.5105 58.6391 75.7348C58.6391 75.959 58.6391 76.1646 58.6391 76.3515C58.6766 76.5383 58.6953 76.7252 58.6953 76.9121C58.6953 77.099 58.6953 77.2672 58.6953 77.4167C58.7328 77.5288 58.7516 77.6222 58.7516 77.697V77.8652C58.7516 77.9025 58.7703 77.9212 58.8078 77.9212V77.697C58.8078 77.6222 58.8078 77.5288 58.8078 77.4167C58.8453 77.2672 58.8641 77.099 58.8641 76.9121C58.8641 76.7252 58.8641 76.5383 58.8641 76.3515C58.9016 76.1646 58.9203 75.959 58.9203 75.7348C58.9578 75.5105 58.9766 75.2863 58.9766 75.062C58.9766 74.8004 58.9953 74.5201 59.0328 74.221C59.0328 73.922 59.0328 73.6417 59.0328 73.3801C59.0703 73.0811 59.0891 72.7634 59.0891 72.427C59.0891 72.128 59.0891 71.8103 59.0891 71.4739C59.1266 71.1376 59.1453 70.8012 59.1453 70.4648V68.839C59.1828 68.7268 59.2016 68.54 59.2016 68.2783V63.8493ZM68.4833 55.2717C68.4833 54.7858 68.4645 54.1878 68.427 53.4776C68.3895 52.7675 68.2583 52.0947 68.0333 51.4593C67.8083 50.824 67.452 50.282 66.9645 49.8335C66.5144 49.3476 65.8394 49.1047 64.9394 49.1047C64.0393 49.1047 63.3455 49.3476 62.858 49.8335C62.408 50.282 62.0705 50.824 61.8455 51.4593C61.6205 52.0947 61.4892 52.7675 61.4517 53.4776C61.4142 54.1878 61.3954 54.7858 61.3954 55.2717V65.8676C62.033 65.8676 62.558 65.9984 62.9705 66.2601C62.033 66.7833 61.508 67.6243 61.3954 68.7829V77.0242C61.3954 77.5101 61.4142 78.1081 61.4517 78.8182C61.4892 79.491 61.6205 80.1638 61.8455 80.8365C62.0705 81.4719 62.408 82.0139 62.858 82.4624C63.3455 82.9109 64.0393 83.1351 64.9394 83.1351C65.8394 83.1351 66.5144 82.9109 66.9645 82.4624C67.452 82.0139 67.8083 81.4719 68.0333 80.8365C68.2583 80.1638 68.3895 79.491 68.427 78.8182C68.4645 78.1081 68.4833 77.5101 68.4833 77.0242V68.7829C68.4083 67.6616 67.8833 66.8207 66.9082 66.2601C67.3207 65.9984 67.8458 65.8676 68.4833 65.8676V55.2717ZM71.5209 63.8493C71.5209 63.6625 71.5209 63.4943 71.5209 63.3448C71.5209 63.1579 71.5022 62.971 71.4647 62.7841V61.7189C71.4647 61.0088 71.4459 60.336 71.4084 59.7007C71.4084 59.0653 71.3897 58.4673 71.3522 57.9066C71.3147 57.645 71.2959 57.3834 71.2959 57.1217C71.2959 56.8601 71.2772 56.6172 71.2397 56.3929C71.2397 56.1687 71.2209 55.9631 71.1834 55.7762C71.1834 55.5893 71.1834 55.4212 71.1834 55.2717C71.1834 55.0848 71.1647 54.9353 71.1272 54.8231C71.1272 54.6736 71.1272 54.5615 71.1272 54.4868V54.2065C71.0897 54.2065 71.0709 54.2251 71.0709 54.2625V54.4868C71.0709 54.5615 71.0709 54.6736 71.0709 54.8231C71.0709 54.9353 71.0522 55.0848 71.0147 55.2717C71.0147 55.4212 70.9959 55.5893 70.9584 55.7762C70.9584 55.9631 70.9584 56.1687 70.9584 56.3929C70.9209 56.6172 70.9022 56.8601 70.9022 57.1217C70.9022 57.3834 70.8834 57.645 70.8459 57.9066C70.8084 58.4673 70.7896 59.0653 70.7896 59.7007C70.7896 60.336 70.7709 61.0088 70.7334 61.7189V63.8493C70.6959 64.2231 70.6771 64.5969 70.6771 64.9706C70.6771 65.3444 70.6771 65.7181 70.6771 66.0919C70.6771 66.4656 70.6771 66.8394 70.6771 67.2131C70.6771 67.5495 70.6959 67.9046 70.7334 68.2783V70.4648C70.7334 70.8012 70.7334 71.1376 70.7334 71.4739C70.7709 71.8103 70.7896 72.128 70.7896 72.427C70.7896 72.7634 70.7896 73.0811 70.7896 73.3801C70.8271 73.6417 70.8459 73.922 70.8459 74.221C70.8834 74.5201 70.9022 74.8004 70.9022 75.062C70.9022 75.2863 70.9209 75.5105 70.9584 75.7348C70.9584 75.959 70.9584 76.1646 70.9584 76.3515C70.9959 76.5383 71.0147 76.7252 71.0147 76.9121C71.0522 77.099 71.0709 77.2672 71.0709 77.4167C71.0709 77.5288 71.0709 77.6222 71.0709 77.697V77.8652C71.0709 77.9025 71.0897 77.9212 71.1272 77.9212V77.697C71.1272 77.6222 71.1272 77.5288 71.1272 77.4167C71.1647 77.2672 71.1834 77.099 71.1834 76.9121C71.1834 76.7252 71.1834 76.5383 71.1834 76.3515C71.2209 76.1646 71.2397 75.959 71.2397 75.7348C71.2772 75.5105 71.2959 75.2863 71.2959 75.062C71.2959 74.8004 71.3147 74.5201 71.3522 74.221C71.3522 73.922 71.3522 73.6417 71.3522 73.3801C71.3897 73.0811 71.4084 72.7634 71.4084 72.427C71.4084 72.128 71.4084 71.8103 71.4084 71.4739C71.4459 71.1376 71.4647 70.8012 71.4647 70.4648V69.3996C71.4647 69.3249 71.4647 69.2314 71.4647 69.1193C71.5022 69.0072 71.5209 68.9137 71.5209 68.839V63.8493Z" fill="#F4EDE8"/>
<path d="M94.5898 58.6355C94.5898 60.3174 94.1773 61.8311 93.3523 63.1766C92.5272 64.5221 91.4209 65.5686 90.0333 66.3161C90.7084 66.8394 91.3272 67.4561 91.8897 68.1662C92.4522 68.839 92.921 69.5865 93.296 70.4087C93.7085 71.231 94.0273 72.072 94.2523 72.9316C94.4773 73.7912 94.5898 74.6322 94.5898 75.4544V79.0425C94.5523 80.2385 94.3085 81.3598 93.8585 82.4063C93.4085 83.4154 92.7897 84.3124 92.0022 85.0973C91.2146 85.8448 90.2959 86.4429 89.2458 86.8914C88.1958 87.3772 87.0707 87.6202 85.8706 87.6202H80.5829C80.3204 87.6202 80.0954 87.5267 79.9079 87.3399C79.7578 87.153 79.6828 86.9287 79.6828 86.6671C79.6828 86.9287 79.5891 87.153 79.4016 87.3399C79.2141 87.5267 79.0078 87.6202 78.7828 87.6202H75.8014C75.8014 87.2838 75.8577 87.0409 75.9702 86.8914C76.1202 86.7419 76.2702 86.5737 76.4202 86.3868C76.5702 86.2373 76.7015 86.013 76.814 85.714C76.964 85.415 77.039 84.9478 77.039 84.3124V68.6708C76.9265 67.5495 76.4014 66.7273 75.4639 66.204C75.9514 65.905 76.4764 65.7555 77.039 65.7555V47.3107C77.039 46.6753 76.964 46.2081 76.814 45.9091C76.7015 45.6101 76.5702 45.3858 76.4202 45.2363C76.2702 45.0494 76.1202 44.8813 75.9702 44.7318C75.8577 44.5823 75.8014 44.3393 75.8014 44.0029H78.7828C79.0078 44.0029 79.2141 44.0964 79.4016 44.2832C79.5891 44.4327 79.6828 44.6383 79.6828 44.8999C79.6828 44.3019 79.9829 44.0029 80.5829 44.0029H85.8706C87.0707 44.0029 88.1958 44.2272 89.2458 44.6757C90.2959 45.1242 91.2146 45.7409 92.0022 46.5258C92.7897 47.2733 93.4085 48.1703 93.8585 49.2168C94.3085 50.2633 94.5523 51.3659 94.5898 52.5246V58.6355ZM80.0766 62.7841C80.0766 62.5225 80.0579 62.2796 80.0204 62.0553C80.0204 61.7937 80.0204 61.5507 80.0204 61.3265V59.8688C79.9829 58.8971 79.9641 57.9814 79.9641 57.1217C79.9641 56.2621 79.9454 55.4585 79.9079 54.711C79.8704 54.2999 79.8516 53.9261 79.8516 53.5898C79.8516 53.2534 79.8329 52.9357 79.7954 52.6367C79.7954 52.3377 79.7766 52.0574 79.7391 51.7957C79.7391 51.4967 79.7391 51.2538 79.7391 51.0669C79.7391 50.8427 79.7203 50.6371 79.6828 50.4502C79.6828 50.2633 79.6828 50.1138 79.6828 50.0017V49.6653C79.6453 49.7027 79.6266 49.7401 79.6266 49.7775V50.0017C79.6266 50.1138 79.6078 50.2633 79.5703 50.4502C79.5703 50.6371 79.5703 50.8427 79.5703 51.0669C79.5703 51.2538 79.5516 51.4967 79.5141 51.7957C79.5141 52.0574 79.5141 52.3377 79.5141 52.6367C79.4766 52.9357 79.4578 53.2534 79.4578 53.5898C79.4578 53.9261 79.4391 54.2999 79.4016 54.711C79.3641 55.4585 79.3453 56.2621 79.3453 57.1217C79.3453 57.9814 79.3266 58.8971 79.2891 59.8688V61.3265C79.2891 61.5507 79.2891 61.7937 79.2891 62.0553C79.2891 62.2796 79.2703 62.5225 79.2328 62.7841V68.7829C79.2328 68.9324 79.2328 69.0632 79.2328 69.1754C79.2703 69.2875 79.2891 69.4183 79.2891 69.5678V71.6982C79.2891 72.1841 79.2891 72.67 79.2891 73.1558C79.3266 73.6044 79.3453 74.0342 79.3453 74.4453C79.3453 74.8564 79.3453 75.2676 79.3453 75.6787C79.3828 76.0898 79.4016 76.501 79.4016 76.9121C79.4391 77.099 79.4578 77.2858 79.4578 77.4727C79.4578 77.6222 79.4578 77.7904 79.4578 77.9773C79.4578 78.1642 79.4578 78.3324 79.4578 78.4819C79.4953 78.6314 79.5141 78.7809 79.5141 78.9304C79.5141 79.2294 79.5141 79.5284 79.5141 79.8274C79.5516 80.089 79.5703 80.332 79.5703 80.5562C79.5703 80.7805 79.5703 80.986 79.5703 81.1729C79.6078 81.3224 79.6266 81.4532 79.6266 81.5653V81.8457C79.6266 81.883 79.6453 81.9204 79.6828 81.9578V81.5653C79.6828 81.4532 79.6828 81.3224 79.6828 81.1729C79.7203 80.986 79.7391 80.7805 79.7391 80.5562C79.7391 80.332 79.7391 80.089 79.7391 79.8274C79.7766 79.5284 79.7954 79.2294 79.7954 78.9304C79.8329 78.7809 79.8516 78.6314 79.8516 78.4819C79.8516 78.3324 79.8516 78.1642 79.8516 77.9773C79.8516 77.7904 79.8516 77.6222 79.8516 77.4727C79.8891 77.2858 79.9079 77.099 79.9079 76.9121C79.9079 76.501 79.9079 76.0898 79.9079 75.6787C79.9454 75.2676 79.9641 74.8564 79.9641 74.4453C79.9641 74.0342 79.9641 73.6044 79.9641 73.1558C80.0016 72.67 80.0204 72.1841 80.0204 71.6982V70.2966C80.0204 69.9602 80.0391 69.7173 80.0766 69.5678V62.7841ZM91.6647 77.9212C91.6272 78.0334 91.6084 78.2202 91.6084 78.4819V79.491C91.6084 79.6779 91.5897 79.8461 91.5522 79.9956C91.5522 80.1451 91.5522 80.2946 91.5522 80.4441C91.5522 80.5936 91.5334 80.7244 91.4959 80.8365C91.4959 80.9486 91.4959 81.0608 91.4959 81.1729V81.3411C91.4584 81.3785 91.4397 81.4345 91.4397 81.5093V81.7896C91.4022 81.827 91.3834 81.8643 91.3834 81.9017V82.0138C91.3834 82.0512 91.3647 82.0886 91.3272 82.126C91.3272 82.126 91.3272 82.1447 91.3272 82.182C91.3272 82.2194 91.3084 82.2568 91.2709 82.2942H91.3272C91.3272 82.2942 91.3459 82.2568 91.3834 82.182C91.3834 82.182 91.4022 82.1447 91.4397 82.0699C91.4772 82.0325 91.4959 81.9952 91.4959 81.9578C91.5334 81.9204 91.5522 81.883 91.5522 81.8457C91.5897 81.8083 91.6084 81.7709 91.6084 81.7335C91.6459 81.6962 91.6647 81.6401 91.6647 81.5653C91.7397 81.4906 91.7772 81.3972 91.7772 81.285C91.8522 81.1355 91.9272 80.8739 92.0022 80.5001C92.0772 80.2759 92.1147 80.1264 92.1147 80.0516C92.1522 79.9769 92.1709 79.9021 92.1709 79.8274C92.1709 79.7153 92.1897 79.6218 92.2272 79.5471C92.2272 79.4723 92.2272 79.3976 92.2272 79.3228C92.2647 79.2107 92.2835 79.1172 92.2835 79.0425C92.321 78.9304 92.3397 78.7622 92.3397 78.5379C92.3772 78.351 92.396 78.1642 92.396 77.9773C92.396 77.7904 92.4147 77.6035 92.4522 77.4167V75.062C92.4522 74.8751 92.4335 74.6882 92.396 74.5014C92.396 74.3145 92.3772 74.1276 92.3397 73.9407C92.3397 73.7165 92.321 73.5483 92.2835 73.4362C92.2835 73.3614 92.2647 73.2867 92.2272 73.2119C92.2272 73.0998 92.2272 73.0063 92.2272 72.9316C92.1897 72.8568 92.1709 72.7821 92.1709 72.7073C92.1709 72.5952 92.1522 72.5018 92.1147 72.427C92.1147 72.3523 92.0959 72.2775 92.0584 72.2028C92.0584 72.128 92.0584 72.0533 92.0584 71.9785C91.9834 71.7543 91.9459 71.6235 91.9459 71.5861C91.9084 71.4739 91.8522 71.3431 91.7772 71.1936C91.7772 71.0815 91.7397 70.9881 91.6647 70.9133C91.6647 70.8012 91.6272 70.7078 91.5522 70.633C91.4772 70.4835 91.4209 70.3714 91.3834 70.2966C91.3459 70.2592 91.3272 70.2219 91.3272 70.1845H91.2709C91.2709 70.1845 91.2897 70.2219 91.3272 70.2966C91.3272 70.334 91.3272 70.3714 91.3272 70.4087C91.3647 70.4087 91.3834 70.4274 91.3834 70.4648C91.3834 70.5396 91.4022 70.6143 91.4397 70.6891V70.9694C91.4772 71.0441 91.4959 71.1376 91.4959 71.2497C91.4959 71.4366 91.5147 71.5674 91.5522 71.6421V72.0346C91.5897 72.1841 91.6084 72.3336 91.6084 72.4831C91.6084 72.6326 91.6084 72.8008 91.6084 72.9877V73.4922C91.6084 73.567 91.6084 73.6604 91.6084 73.7725C91.6459 73.8473 91.6647 73.922 91.6647 73.9968V77.9212ZM89.3583 75.4544C89.3583 74.9686 89.3396 74.2771 89.3021 73.3801C89.2646 72.4831 89.1333 71.5861 88.9083 70.6891C88.6833 69.792 88.327 69.0259 87.8395 68.3905C87.3895 67.7177 86.7144 67.3813 85.8144 67.3813H83.7893C83.3768 67.3813 83.0205 67.5308 82.7205 67.8298C82.4205 68.1288 82.2705 68.4839 82.2705 68.895V83.4715C82.2705 83.8826 82.4205 84.2377 82.7205 84.5367C83.0205 84.7983 83.3768 84.9478 83.7893 84.9852H85.8144C86.7144 84.9852 87.3895 84.761 87.8395 84.3124C88.327 83.8266 88.6833 83.2659 88.9083 82.6305C89.1333 81.9952 89.2646 81.3224 89.3021 80.6123C89.3396 79.9021 89.3583 79.3041 89.3583 78.8182V75.4544ZM89.3583 52.7488C89.3583 52.2629 89.3396 51.6836 89.3021 51.0108C89.2646 50.3007 89.1333 49.6279 88.9083 48.9926C88.6833 48.3572 88.327 47.8152 87.8395 47.3667C87.3895 46.8808 86.7144 46.6379 85.8144 46.6379H83.7893C83.3768 46.6379 83.0205 46.7874 82.7205 47.0864C82.4205 47.3854 82.2705 47.7405 82.2705 48.1516V63.2326C82.2705 63.6438 82.4205 63.9988 82.7205 64.2978C83.0205 64.5969 83.3768 64.7464 83.7893 64.7464H85.8144C86.7144 64.7464 87.3895 64.5221 87.8395 64.0736C88.327 63.6251 88.6833 63.0831 88.9083 62.4478C89.1333 61.775 89.2646 61.1022 89.3021 60.4295C89.3396 59.7193 89.3583 59.1213 89.3583 58.6355V52.7488ZM91.8897 60.1492C91.9647 59.9249 92.0022 59.7754 92.0022 59.7007C92.0772 59.5512 92.1147 59.4017 92.1147 59.2521C92.1522 59.1774 92.1709 59.1026 92.1709 59.0279C92.1709 58.9158 92.1897 58.8223 92.2272 58.7476C92.2272 58.6728 92.2272 58.5981 92.2272 58.5233C92.2647 58.4112 92.2835 58.2991 92.2835 58.1869C92.321 58.0748 92.3397 57.8879 92.3397 57.6263C92.3772 57.4394 92.396 57.2526 92.396 57.0657C92.396 56.8788 92.4147 56.6919 92.4522 56.505V55.2717C92.4522 54.8605 92.4522 54.4681 92.4522 54.0943C92.4522 53.6832 92.4335 53.2908 92.396 52.917C92.3585 52.8049 92.3397 52.7114 92.3397 52.6367C92.3397 52.5246 92.321 52.4311 92.2835 52.3564C92.2835 52.0947 92.2647 51.9079 92.2272 51.7957C92.1897 51.6089 92.1522 51.4407 92.1147 51.2912C92.1147 51.1417 92.0959 50.9922 92.0584 50.8427C91.9834 50.6184 91.9459 50.4689 91.9459 50.3941C91.8709 50.2446 91.8334 50.1325 91.8334 50.0578C91.7584 49.9083 91.7022 49.7961 91.6647 49.7214C91.6647 49.6093 91.6272 49.5158 91.5522 49.4411C91.5147 49.3289 91.4584 49.1981 91.3834 49.0486L91.2709 48.9365V48.9926C91.2709 49.0299 91.2709 49.0486 91.2709 49.0486C91.3084 49.0486 91.3272 49.0673 91.3272 49.1047C91.3647 49.1421 91.3834 49.1981 91.3834 49.2729C91.3834 49.3476 91.4022 49.4224 91.4397 49.4971V49.7775C91.4772 49.8522 91.4959 49.9643 91.4959 50.1138C91.4959 50.1886 91.4959 50.2633 91.4959 50.3381C91.5334 50.3755 91.5522 50.4315 91.5522 50.5063V50.8987C91.5897 51.0482 91.6084 51.1977 91.6084 51.3472C91.6084 51.4967 91.6084 51.6649 91.6084 51.8518V52.4124C91.6084 52.4872 91.6084 52.5806 91.6084 52.6927C91.6459 52.7675 91.6647 52.8422 91.6647 52.917V57.0657C91.6272 57.1778 91.6084 57.3647 91.6084 57.6263V58.6915C91.6084 58.8784 91.5897 59.0466 91.5522 59.1961C91.5522 59.3456 91.5522 59.4951 91.5522 59.6446C91.5522 59.7941 91.5334 59.9436 91.4959 60.0931C91.4959 60.2052 91.4959 60.3174 91.4959 60.4295C91.4959 60.6164 91.4772 60.7285 91.4397 60.7659V61.1022C91.4022 61.1022 91.3834 61.1396 91.3834 61.2144V61.3265C91.3834 61.3639 91.3647 61.4012 91.3272 61.4386C91.3272 61.4386 91.3272 61.4573 91.3272 61.4947C91.3272 61.5321 91.3084 61.5694 91.2709 61.6068L91.3834 61.4947C91.3834 61.4573 91.3834 61.4386 91.3834 61.4386C91.4209 61.4012 91.4397 61.3639 91.4397 61.3265C91.4772 61.3265 91.4959 61.2891 91.4959 61.2144C91.5334 61.2144 91.5522 61.177 91.5522 61.1022C91.5897 61.1022 91.6084 61.0649 91.6084 60.9901C91.6459 60.9527 91.6647 60.8967 91.6647 60.8219C91.7397 60.7472 91.7772 60.6537 91.7772 60.5416C91.8522 60.3174 91.8897 60.1865 91.8897 60.1492Z" fill="#F4EDE8"/>
<path d="M115.867 82.4063C116.017 83.0417 116.186 83.5089 116.373 83.8079C116.561 84.1069 116.748 84.3498 116.936 84.5367C117.123 84.7236 117.292 84.8918 117.442 85.0413C117.592 85.1908 117.705 85.4337 117.78 85.7701H114.798C114.536 85.7701 114.292 85.6767 114.067 85.4898C113.879 85.3029 113.767 85.0786 113.729 84.817C113.767 85.0786 113.711 85.3029 113.561 85.4898C113.411 85.6767 113.223 85.7701 112.998 85.7701H110.017C109.942 85.4337 109.96 85.1908 110.073 85.0413C110.185 84.8918 110.298 84.7423 110.41 84.5928C110.523 84.4059 110.617 84.1629 110.692 83.8639C110.767 83.5276 110.748 83.023 110.635 82.3502V82.2942L109.398 75.959C109.323 75.5853 109.117 75.2676 108.779 75.0059C108.442 74.7069 108.067 74.5574 107.654 74.5574H103.773C103.36 74.5574 102.985 74.7069 102.648 75.0059C102.31 75.2676 102.104 75.5853 102.029 75.959L100.847 82.2942V82.3502C100.735 83.023 100.697 83.5276 100.735 83.8639C100.81 84.1629 100.904 84.4059 101.016 84.5928C101.166 84.7423 101.279 84.8918 101.354 85.0413C101.466 85.1908 101.504 85.4337 101.466 85.7701H98.4849C98.2224 85.7701 98.0161 85.6767 97.8661 85.4898C97.7161 85.3029 97.6598 85.0786 97.6973 84.817C97.6598 85.0786 97.5473 85.3029 97.3598 85.4898C97.1723 85.6767 96.9473 85.7701 96.6848 85.7701H93.7034C93.7409 85.4337 93.8346 85.1908 93.9847 85.0413C94.1347 84.8918 94.3034 84.7236 94.4909 84.5367C94.6784 84.3498 94.8659 84.1069 95.0535 83.8079C95.241 83.5089 95.4097 83.0417 95.5597 82.4063L98.0911 68.7829C98.1661 68.2597 98.1099 67.7738 97.9223 67.3253C97.7348 66.8768 97.4348 66.5217 97.0223 66.2601C97.6223 65.9984 98.1661 65.8676 98.6536 65.8676L101.691 49.8896C101.804 49.2542 101.823 48.787 101.748 48.488C101.673 48.1516 101.579 47.9087 101.466 47.7592C101.354 47.5723 101.241 47.4041 101.129 47.2546C101.016 47.1051 100.997 46.8622 101.072 46.5258H104.841C105.404 46.6005 105.685 46.9182 105.685 47.4789C105.685 47.2172 105.76 47.0117 105.91 46.8622C106.098 46.6753 106.304 46.5632 106.529 46.5258H110.354C110.429 46.8622 110.41 47.1051 110.298 47.2546C110.223 47.4041 110.129 47.5723 110.017 47.7592C109.904 47.9087 109.81 48.1516 109.735 48.488C109.66 48.787 109.679 49.2542 109.792 49.8896L112.773 65.8676C113.073 65.8676 113.354 65.905 113.617 65.9797C113.879 66.0545 114.142 66.1479 114.404 66.2601C113.579 66.7833 113.223 67.6243 113.336 68.7829L115.867 82.4063ZM102.366 62.3356C102.441 62.1114 102.479 61.9058 102.479 61.7189C102.516 61.4947 102.554 61.2891 102.591 61.1022C102.779 60.2426 102.929 59.439 103.041 58.6915C103.154 57.9066 103.266 57.1965 103.379 56.5611C103.454 56.2621 103.491 55.9631 103.491 55.6641C103.529 55.3651 103.566 55.0661 103.604 54.7671C103.641 54.5055 103.679 54.2625 103.716 54.0383C103.754 53.814 103.791 53.6084 103.829 53.4216C103.866 53.2347 103.885 53.0665 103.885 52.917C103.885 52.7301 103.904 52.5806 103.941 52.4685V52.2442L103.885 52.4685C103.848 52.5806 103.81 52.7114 103.773 52.8609C103.735 53.0104 103.698 53.1786 103.66 53.3655C103.585 53.5524 103.529 53.7766 103.491 54.0383C103.454 54.2625 103.398 54.4868 103.323 54.711C103.248 55.01 103.173 55.309 103.098 55.608C103.06 55.907 103.004 56.206 102.929 56.505C102.741 57.1404 102.554 57.8319 102.366 58.5794C102.216 59.2895 102.048 60.0744 101.86 60.934C101.86 61.1583 101.841 61.3639 101.804 61.5507C101.766 61.7376 101.71 61.9432 101.635 62.1674C101.598 62.3917 101.56 62.6159 101.523 62.8402C101.485 63.0271 101.448 63.2326 101.41 63.4569C101.298 63.868 101.185 64.2978 101.072 64.7464C100.997 65.1949 100.922 65.6434 100.847 66.0919C100.772 66.503 100.679 66.9328 100.566 67.3813C100.491 67.8298 100.416 68.2597 100.341 68.6708C100.304 68.7829 100.285 68.895 100.285 69.0072C100.285 69.0819 100.266 69.1754 100.229 69.2875C100.154 69.5865 100.116 69.8107 100.116 69.9602C100.004 70.334 99.9287 70.7451 99.8912 71.1936C99.8162 71.6048 99.7412 72.0159 99.6662 72.427C99.5912 72.8382 99.5349 73.2119 99.4974 73.5483C99.3849 74.4079 99.2724 75.1181 99.1599 75.6787C99.0849 75.9777 99.0286 76.2767 98.9911 76.5757C98.9536 76.8747 98.9161 77.1737 98.8786 77.4727C98.8036 77.7344 98.7474 77.996 98.7099 78.2576C98.7099 78.4819 98.6911 78.6874 98.6536 78.8743C98.6161 79.0612 98.5974 79.2294 98.5974 79.3789C98.5974 79.5284 98.5786 79.6592 98.5411 79.7713C98.5411 79.8461 98.5224 79.9021 98.4849 79.9395C98.4849 79.9395 98.4849 79.9582 98.4849 79.9956V80.0516C98.5224 80.0516 98.5411 80.0329 98.5411 79.9956C98.5411 79.9208 98.5599 79.8461 98.5974 79.7713C98.6349 79.6966 98.6536 79.5844 98.6536 79.4349C98.6911 79.2481 98.7474 79.0612 98.8224 78.8743C98.8974 78.6874 98.9536 78.4819 98.9911 78.2576C99.0661 78.0334 99.1412 77.7904 99.2162 77.5288C99.2912 77.2672 99.3474 76.9868 99.3849 76.6878C99.4599 76.3888 99.5162 76.0898 99.5537 75.7908C99.6287 75.4918 99.7037 75.1741 99.7787 74.8377C99.8912 74.464 99.9849 74.0902 100.06 73.7165C100.135 73.3427 100.21 72.9503 100.285 72.5392C100.397 72.128 100.51 71.7169 100.622 71.3058C100.66 71.1189 100.697 70.932 100.735 70.7451C100.772 70.5209 100.81 70.3153 100.847 70.1284L101.016 69.4557C101.054 69.3435 101.072 69.2314 101.072 69.1193C101.072 69.0072 101.091 68.895 101.129 68.7829C101.204 68.3718 101.298 67.9606 101.41 67.5495C101.523 67.101 101.616 66.6525 101.691 66.204C101.766 65.7929 101.841 65.363 101.916 64.9145C101.991 64.466 102.066 64.0362 102.141 63.6251C102.179 63.4008 102.216 63.1766 102.254 62.9523C102.291 62.7281 102.329 62.5225 102.366 62.3356ZM107.148 71.9225C107.56 71.8851 107.879 71.7356 108.104 71.4739C108.367 71.1749 108.46 70.8199 108.385 70.4087L108.048 68.7829C107.898 68.2597 107.635 67.7738 107.26 67.3253C106.923 66.8768 106.51 66.5217 106.023 66.2601C106.473 65.9984 106.96 65.8676 107.485 65.8676L105.685 56.2808L103.885 65.8676C104.373 65.8676 104.879 65.9984 105.404 66.2601C104.879 66.5217 104.429 66.8768 104.054 67.3253C103.716 67.7738 103.491 68.2597 103.379 68.7829L103.098 70.4087C103.023 70.8199 103.098 71.1749 103.323 71.4739C103.548 71.7356 103.848 71.8851 104.223 71.9225H107.148ZM112.829 79.7713C112.829 79.8461 112.829 79.9021 112.829 79.9395C112.867 79.9395 112.886 79.9582 112.886 79.9956V79.7713C112.848 79.6592 112.829 79.5284 112.829 79.3789C112.829 79.2294 112.811 79.0612 112.773 78.8743C112.736 78.6874 112.698 78.4819 112.661 78.2576C112.661 77.996 112.623 77.7344 112.548 77.4727C112.511 77.1737 112.473 76.8747 112.436 76.5757C112.398 76.2767 112.342 75.9777 112.267 75.6787C112.154 75.1181 112.042 74.4079 111.929 73.5483C111.854 73.2119 111.779 72.8382 111.704 72.427C111.667 72.0159 111.61 71.6048 111.535 71.1936C111.46 70.9694 111.404 70.7638 111.367 70.5769C111.367 70.3901 111.329 70.1845 111.254 69.9602C111.254 69.8107 111.217 69.5865 111.142 69.2875C111.142 69.1754 111.123 69.0819 111.085 69.0072C111.085 68.895 111.085 68.7829 111.085 68.6708C111.01 68.2597 110.917 67.8298 110.804 67.3813C110.729 66.9328 110.654 66.503 110.579 66.0919C110.504 65.6434 110.41 65.1949 110.298 64.7464C110.223 64.2978 110.129 63.868 110.017 63.4569C109.979 63.2326 109.942 63.0271 109.904 62.8402C109.867 62.6159 109.829 62.3917 109.792 62.1674C109.717 61.9432 109.66 61.7376 109.623 61.5507C109.585 61.3639 109.548 61.1583 109.51 60.934C109.323 60.0744 109.135 59.2895 108.948 58.5794C108.798 57.8319 108.667 57.1404 108.554 56.505C108.479 56.206 108.404 55.907 108.329 55.608C108.254 55.309 108.179 55.01 108.104 54.711C108.029 54.4868 107.954 54.2625 107.879 54.0383C107.842 53.7766 107.785 53.5524 107.71 53.3655C107.673 53.1786 107.635 53.0104 107.598 52.8609C107.56 52.7114 107.523 52.5806 107.485 52.4685L107.429 52.2442V52.4685C107.467 52.6554 107.523 52.9731 107.598 53.4216C107.598 53.6084 107.617 53.814 107.654 54.0383C107.692 54.2625 107.729 54.5055 107.767 54.7671C107.804 55.0661 107.842 55.3651 107.879 55.6641C107.917 55.9631 107.973 56.2621 108.048 56.5611C108.16 57.1965 108.273 57.9066 108.385 58.6915C108.498 59.439 108.629 60.2426 108.779 61.1022C108.817 61.2891 108.835 61.4947 108.835 61.7189C108.873 61.9058 108.929 62.1114 109.004 62.3356C109.042 62.5225 109.079 62.7281 109.117 62.9523C109.154 63.1766 109.192 63.4008 109.229 63.6251C109.304 64.0362 109.379 64.466 109.454 64.9145C109.567 65.363 109.66 65.7929 109.735 66.204C109.81 66.6525 109.904 67.101 110.017 67.5495C110.129 67.9606 110.223 68.3718 110.298 68.7829C110.335 68.895 110.354 69.0072 110.354 69.1193C110.354 69.2314 110.373 69.3435 110.41 69.4557L110.579 70.1284C110.617 70.3153 110.654 70.5209 110.692 70.7451C110.729 70.932 110.767 71.1189 110.804 71.3058C110.917 71.7169 111.01 72.128 111.085 72.5392C111.16 72.9503 111.235 73.3427 111.31 73.7165C111.385 74.0902 111.46 74.464 111.535 74.8377C111.648 75.1741 111.742 75.4918 111.817 75.7908C111.892 76.0898 111.967 76.3888 112.042 76.6878C112.117 76.9868 112.192 77.2672 112.267 77.5288C112.379 78.052 112.492 78.5006 112.604 78.8743C112.679 79.0612 112.717 79.2481 112.717 79.4349C112.754 79.5844 112.792 79.6966 112.829 79.7713Z" fill="#F4EDE8"/>
<path d="M139.469 88.1247C139.881 88.1995 140.163 88.3303 140.313 88.5172C140.5 88.7041 140.631 88.8909 140.706 89.0778C140.781 89.3021 140.819 89.545 140.819 89.8066C139.619 89.8066 138.494 89.6571 137.444 89.3581C136.394 89.0591 135.456 88.5733 134.631 87.9005C133.844 87.2277 133.206 86.3494 132.719 85.2655C132.269 84.1816 132.044 82.8548 132.044 81.285V73.6044C132.044 73.1185 132.025 72.5205 131.987 71.8103C131.95 71.1002 131.819 70.4274 131.594 69.792C131.369 69.1567 131.012 68.6147 130.525 68.1662C130.075 67.6803 129.4 67.4374 128.5 67.4374H126.193C125.856 67.5121 125.556 67.699 125.293 67.998C125.068 68.2597 124.956 68.5773 124.956 68.9511V82.3502C124.956 83.023 125.012 83.5276 125.124 83.8639C125.274 84.1629 125.424 84.4059 125.574 84.5928C125.725 84.7423 125.856 84.8918 125.968 85.0413C126.118 85.1908 126.193 85.4337 126.193 85.7701H123.212C122.987 85.7701 122.781 85.6767 122.593 85.4898C122.406 85.3029 122.312 85.0973 122.312 84.8731C122.312 85.0973 122.218 85.3029 122.031 85.4898C121.881 85.6767 121.674 85.7701 121.412 85.7701H118.487C118.487 85.4337 118.543 85.1908 118.655 85.0413C118.805 84.8918 118.955 84.7423 119.105 84.5928C119.255 84.4059 119.387 84.1629 119.499 83.8639C119.649 83.5649 119.724 83.0977 119.724 82.4624V68.7829C119.612 67.6243 119.087 66.7833 118.149 66.2601C118.562 65.9984 119.087 65.8676 119.724 65.8676V49.8335C119.724 49.1981 119.649 48.7309 119.499 48.4319C119.387 48.1329 119.255 47.9087 119.105 47.7592C118.955 47.5723 118.805 47.4041 118.655 47.2546C118.543 47.1051 118.487 46.8622 118.487 46.5258H121.468C121.693 46.5258 121.899 46.6192 122.087 46.8061C122.274 46.9556 122.368 47.1612 122.368 47.4228C122.368 46.8248 122.668 46.5258 123.268 46.5258H128.556C129.756 46.5258 130.881 46.75 131.931 47.1985C132.981 47.647 133.9 48.2637 134.687 49.0486C135.475 49.7961 136.094 50.6932 136.544 51.7397C136.994 52.7862 137.238 53.8888 137.275 55.0474V58.6915C137.275 60.2613 136.9 61.7002 136.15 63.0084C135.4 64.3165 134.387 65.363 133.112 66.1479C134.387 66.8954 135.4 67.942 136.15 69.2875C136.9 70.5956 137.275 72.0346 137.275 73.6044V81.0608C137.275 81.8457 137.275 82.6492 137.275 83.4715C137.313 84.2564 137.406 84.9852 137.556 85.658C137.706 86.2933 137.931 86.8353 138.231 87.2838C138.531 87.7323 138.944 88.0126 139.469 88.1247ZM134.35 57.7384C134.312 57.8132 134.294 57.9066 134.294 58.0188V59.3082C134.256 59.4577 134.237 59.6072 134.237 59.7567C134.237 59.8688 134.237 59.981 134.237 60.0931C134.237 60.1679 134.219 60.2239 134.181 60.2613C134.181 60.2987 134.181 60.3547 134.181 60.4295V60.7659C134.144 60.8406 134.125 60.934 134.125 61.0462C134.125 61.1209 134.106 61.1957 134.069 61.2704C134.069 61.3452 134.05 61.4012 134.012 61.4386V61.5507L133.956 61.6629C133.956 61.6629 133.994 61.6442 134.069 61.6068V61.5507L134.125 61.4947C134.162 61.4573 134.181 61.4386 134.181 61.4386C134.181 61.4012 134.2 61.3639 134.237 61.3265C134.275 61.2517 134.312 61.177 134.35 61.1022C134.387 60.9901 134.425 60.8967 134.462 60.8219C134.5 60.7472 134.519 60.7098 134.519 60.7098C134.519 60.6724 134.537 60.6164 134.575 60.5416C134.612 60.4669 134.631 60.4108 134.631 60.3734C134.631 60.2987 134.65 60.2239 134.687 60.1492C134.725 60.0744 134.744 60.0183 134.744 59.981C134.744 59.9436 134.762 59.8875 134.8 59.8128C134.8 59.738 134.8 59.682 134.8 59.6446C134.837 59.5698 134.856 59.4951 134.856 59.4203C134.894 59.2708 134.912 59.1213 134.912 58.9718C134.95 58.8223 134.987 58.6728 135.025 58.5233C135.062 58.4112 135.081 58.243 135.081 58.0188C135.081 57.944 135.081 57.8693 135.081 57.7945C135.119 57.7198 135.137 57.645 135.137 57.5703V55.608C135.137 55.3838 135.119 55.2156 135.081 55.1035V54.8792C135.081 54.8045 135.062 54.7671 135.025 54.7671C135.025 54.7297 135.025 54.6736 135.025 54.5989C135.025 54.412 134.987 54.1317 134.912 53.7579C134.875 53.6832 134.856 53.6084 134.856 53.5337C134.856 53.4589 134.837 53.3842 134.8 53.3094C134.8 53.2721 134.781 53.2534 134.744 53.2534C134.744 53.216 134.744 53.1786 134.744 53.1412C134.744 53.1039 134.725 53.0852 134.687 53.0852C134.687 53.0478 134.687 53.0104 134.687 52.9731C134.65 52.8983 134.631 52.8422 134.631 52.8049C134.631 52.7675 134.612 52.7114 134.575 52.6367C134.537 52.5619 134.519 52.5059 134.519 52.4685C134.519 52.4311 134.5 52.3751 134.462 52.3003C134.425 52.2629 134.406 52.2255 134.406 52.1882C134.406 52.1508 134.387 52.1134 134.35 52.076C134.275 51.9265 134.237 51.8518 134.237 51.8518C134.2 51.8144 134.181 51.7957 134.181 51.7957C134.181 51.7584 134.162 51.721 134.125 51.6836C134.087 51.6462 134.069 51.6089 134.069 51.5715C134.031 51.5341 134.012 51.4967 134.012 51.4593H133.956C133.956 51.4593 133.975 51.4967 134.012 51.5715V51.6836C134.05 51.721 134.069 51.7957 134.069 51.9079C134.069 51.9452 134.069 51.9826 134.069 52.02C134.106 52.02 134.125 52.0574 134.125 52.1321C134.125 52.2442 134.144 52.3377 134.181 52.4124V52.6927C134.181 52.7675 134.181 52.8236 134.181 52.8609C134.219 52.8983 134.237 52.9544 134.237 53.0291C134.237 53.3655 134.256 53.6271 134.294 53.814V54.711C134.331 54.8979 134.35 55.1969 134.35 55.608V57.7384ZM122.762 63.513C122.762 63.3261 122.743 63.1205 122.706 62.8963C122.706 62.672 122.706 62.4478 122.706 62.2235V60.9901C122.668 60.1679 122.649 59.383 122.649 58.6355C122.649 57.8879 122.631 57.1778 122.593 56.505C122.556 56.206 122.537 55.907 122.537 55.608C122.537 55.309 122.518 55.0287 122.481 54.7671C122.481 54.4681 122.462 54.2065 122.424 53.9822C122.424 53.7579 122.424 53.5524 122.424 53.3655C122.424 53.1786 122.406 53.0104 122.368 52.8609C122.368 52.7114 122.368 52.5806 122.368 52.4685V52.1882C122.331 52.1882 122.312 52.2069 122.312 52.2442V52.4685C122.312 52.5806 122.293 52.7114 122.256 52.8609C122.256 53.0104 122.256 53.1786 122.256 53.3655C122.256 53.5524 122.237 53.7579 122.199 53.9822C122.199 54.2065 122.199 54.4681 122.199 54.7671C122.162 55.0287 122.143 55.309 122.143 55.608C122.143 55.907 122.124 56.206 122.087 56.505C122.049 57.1778 122.031 57.8879 122.031 58.6355C122.031 59.383 122.012 60.1679 121.974 60.9901V62.2235C121.974 62.4478 121.956 62.672 121.918 62.8963C121.918 63.1205 121.918 63.3261 121.918 63.513V68.7268C121.918 69.0259 121.937 69.2501 121.974 69.3996V71.2497C121.974 71.6608 121.974 72.072 121.974 72.4831C122.012 72.8568 122.031 73.2306 122.031 73.6044C122.031 74.0155 122.031 74.3892 122.031 74.7256C122.068 75.062 122.087 75.3984 122.087 75.7348C122.124 76.0711 122.143 76.3888 122.143 76.6878C122.143 76.9495 122.162 77.2298 122.199 77.5288C122.199 77.7904 122.199 78.0334 122.199 78.2576C122.237 78.4819 122.256 78.6874 122.256 78.8743C122.256 79.0612 122.256 79.2481 122.256 79.4349C122.293 79.5844 122.312 79.6966 122.312 79.7713V80.0516C122.312 80.089 122.331 80.1077 122.368 80.1077V79.7713C122.368 79.6966 122.368 79.5844 122.368 79.4349C122.406 79.2481 122.424 79.0612 122.424 78.8743C122.424 78.6874 122.424 78.4819 122.424 78.2576C122.462 78.0334 122.481 77.7904 122.481 77.5288C122.518 77.2298 122.537 76.9495 122.537 76.6878C122.537 76.3888 122.556 76.0711 122.593 75.7348C122.593 75.3984 122.593 75.062 122.593 74.7256C122.631 74.3892 122.649 74.0155 122.649 73.6044C122.649 73.2306 122.649 72.8568 122.649 72.4831C122.687 72.072 122.706 71.6608 122.706 71.2497V70.0163C122.706 69.7173 122.724 69.5117 122.762 69.3996V63.513ZM132.044 55.2717C132.044 54.7858 132.025 54.1878 131.987 53.4776C131.95 52.7675 131.819 52.0947 131.594 51.4593C131.369 50.824 131.012 50.282 130.525 49.8335C130.075 49.3476 129.4 49.1047 128.5 49.1047H126.475C126.062 49.1421 125.706 49.3103 125.406 49.6093C125.106 49.9083 124.956 50.2633 124.956 50.6745V63.2887C124.956 63.6998 125.106 64.0549 125.406 64.3539C125.706 64.6529 126.062 64.8024 126.475 64.8024H128.5C129.4 64.8024 130.075 64.5782 130.525 64.1297C131.012 63.6811 131.369 63.1392 131.594 62.5038C131.819 61.8311 131.95 61.1583 131.987 60.4855C132.025 59.7754 132.044 59.1774 132.044 58.6915V55.2717ZM135.812 85.9943C135.812 85.9943 135.794 85.9757 135.756 85.9383L135.7 85.8822C135.662 85.8075 135.625 85.7327 135.587 85.658C135.587 85.5832 135.55 85.5085 135.475 85.4337C135.437 85.3216 135.4 85.2095 135.362 85.0973C135.325 84.9478 135.287 84.7796 135.25 84.5928C135.175 84.219 135.137 83.8639 135.137 83.5276C135.1 83.3407 135.081 83.1538 135.081 82.9669C135.081 82.7427 135.081 82.4997 135.081 82.2381V79.2667C135.081 79.0051 135.081 78.7435 135.081 78.4819C135.081 78.2202 135.1 77.9399 135.137 77.6409C135.137 77.3793 135.137 77.1177 135.137 76.856C135.137 76.5944 135.119 76.3328 135.081 76.0711V75.2863C135.081 74.9125 135.062 74.6509 135.025 74.5014C135.025 74.2397 135.006 73.9968 134.969 73.7725C134.969 73.5109 134.95 73.268 134.912 73.0437C134.837 72.5205 134.762 72.072 134.687 71.6982C134.65 71.5113 134.612 71.3431 134.575 71.1936C134.537 71.0068 134.481 70.8199 134.406 70.633C134.331 70.4461 134.275 70.2966 134.237 70.1845C134.2 70.0724 134.144 69.9602 134.069 69.8481C133.994 69.736 133.937 69.6425 133.9 69.5678C133.862 69.493 133.825 69.4183 133.787 69.3435C133.75 69.3435 133.712 69.3249 133.675 69.2875C133.637 69.2875 133.619 69.2688 133.619 69.2314L133.675 69.2875C133.675 69.3249 133.694 69.3622 133.731 69.3996C133.731 69.437 133.731 69.4744 133.731 69.5117C133.769 69.5117 133.787 69.5491 133.787 69.6239C133.825 69.6612 133.844 69.6986 133.844 69.736C133.844 69.7734 133.862 69.8294 133.9 69.9042C133.937 70.0537 133.994 70.3153 134.069 70.6891C134.106 70.8759 134.125 71.0628 134.125 71.2497C134.162 71.4366 134.2 71.6235 134.237 71.8103C134.237 71.9972 134.237 72.2028 134.237 72.427C134.275 72.6139 134.294 72.8382 134.294 73.0998V80.0516C134.294 80.2011 134.294 80.3319 134.294 80.4441C134.331 80.5562 134.35 80.687 134.35 80.8365C134.35 81.0981 134.35 81.3598 134.35 81.6214C134.387 81.8457 134.425 82.0699 134.462 82.2942C134.5 82.5184 134.519 82.7427 134.519 82.9669C134.556 83.1912 134.594 83.3967 134.631 83.5836C134.706 83.8079 134.762 84.0134 134.8 84.2003C134.837 84.3498 134.894 84.518 134.969 84.7049C135.044 84.8918 135.1 85.0413 135.137 85.1534C135.175 85.2655 135.231 85.3776 135.306 85.4898L135.419 85.6019C135.456 85.6393 135.475 85.6767 135.475 85.714C135.475 85.714 135.494 85.7327 135.531 85.7701L135.756 85.9943H135.812Z" fill="#F4EDE8"/>
<path d="M156.336 58.6915C156.336 60.2613 155.961 61.7002 155.211 63.0084C154.461 64.3165 153.448 65.363 152.173 66.1479C153.448 66.8954 154.461 67.942 155.211 69.2875C155.961 70.5956 156.336 72.0346 156.336 73.6044V77.2485C156.298 78.4445 156.055 79.5658 155.605 80.6123C155.155 81.6214 154.536 82.5184 153.748 83.3033C152.961 84.0508 152.042 84.6488 150.992 85.0973C149.942 85.5458 148.817 85.7701 147.617 85.7701H142.273C142.048 85.7701 141.841 85.6767 141.654 85.4898C141.466 85.3029 141.373 85.0973 141.373 84.8731C141.373 85.0973 141.279 85.3029 141.091 85.4898C140.941 85.6767 140.735 85.7701 140.473 85.7701H137.548C137.548 85.4337 137.604 85.1908 137.716 85.0413C137.866 84.8918 138.016 84.7423 138.166 84.5928C138.316 84.4059 138.448 84.1629 138.56 83.8639C138.71 83.5649 138.785 83.0977 138.785 82.4624V68.7829C138.673 67.6243 138.148 66.7833 137.21 66.2601C137.623 65.9984 138.148 65.8676 138.785 65.8676V49.8335C138.785 49.1981 138.71 48.7309 138.56 48.4319C138.448 48.1329 138.316 47.9087 138.166 47.7592C138.016 47.5723 137.866 47.4041 137.716 47.2546C137.604 47.1051 137.548 46.8622 137.548 46.5258H140.529C140.754 46.5258 140.96 46.6192 141.148 46.8061C141.335 46.9556 141.429 47.1612 141.429 47.4228C141.429 46.8248 141.729 46.5258 142.329 46.5258H147.617C148.817 46.5258 149.942 46.75 150.992 47.1985C152.042 47.647 152.961 48.2637 153.748 49.0486C154.536 49.7961 155.155 50.6932 155.605 51.7397C156.055 52.7862 156.298 53.8888 156.336 55.0474V58.6915ZM141.823 63.513C141.823 63.3261 141.804 63.1205 141.766 62.8963C141.766 62.672 141.766 62.4478 141.766 62.2235V60.9901C141.729 60.1679 141.71 59.383 141.71 58.6355C141.71 57.8879 141.691 57.1778 141.654 56.505C141.616 56.206 141.598 55.907 141.598 55.608C141.598 55.309 141.579 55.0287 141.541 54.7671C141.541 54.4681 141.523 54.2065 141.485 53.9822C141.485 53.7579 141.485 53.5524 141.485 53.3655C141.485 53.1786 141.466 53.0104 141.429 52.8609C141.429 52.7114 141.429 52.5806 141.429 52.4685V52.1882C141.391 52.1882 141.373 52.2069 141.373 52.2442V52.4685C141.373 52.5806 141.354 52.7114 141.316 52.8609C141.316 53.0104 141.316 53.1786 141.316 53.3655C141.316 53.5524 141.298 53.7579 141.26 53.9822C141.26 54.2065 141.26 54.4681 141.26 54.7671C141.223 55.0287 141.204 55.309 141.204 55.608C141.204 55.907 141.185 56.206 141.148 56.505C141.11 57.1778 141.091 57.8879 141.091 58.6355C141.091 59.383 141.073 60.1679 141.035 60.9901V62.2235C141.035 62.4478 141.016 62.672 140.979 62.8963C140.979 63.1205 140.979 63.3261 140.979 63.513V68.7268C140.979 69.0259 140.998 69.2501 141.035 69.3996V71.2497C141.035 71.6608 141.035 72.072 141.035 72.4831C141.073 72.8568 141.091 73.2306 141.091 73.6044C141.091 74.0155 141.091 74.3892 141.091 74.7256C141.129 75.062 141.148 75.3984 141.148 75.7348C141.185 76.0711 141.204 76.3888 141.204 76.6878C141.204 76.9495 141.223 77.2298 141.26 77.5288C141.26 77.7904 141.26 78.0334 141.26 78.2576C141.298 78.4819 141.316 78.6874 141.316 78.8743C141.316 79.0612 141.316 79.2481 141.316 79.4349C141.354 79.5844 141.373 79.6966 141.373 79.7713V80.0516C141.373 80.089 141.391 80.1077 141.429 80.1077V79.7713C141.429 79.6966 141.429 79.5844 141.429 79.4349C141.466 79.2481 141.485 79.0612 141.485 78.8743C141.485 78.6874 141.485 78.4819 141.485 78.2576C141.523 78.0334 141.541 77.7904 141.541 77.5288C141.579 77.2298 141.598 76.9495 141.598 76.6878C141.598 76.3888 141.616 76.0711 141.654 75.7348C141.654 75.3984 141.654 75.062 141.654 74.7256C141.691 74.3892 141.71 74.0155 141.71 73.6044C141.71 73.2306 141.71 72.8568 141.71 72.4831C141.748 72.072 141.766 71.6608 141.766 71.2497V70.0163C141.766 69.7173 141.785 69.5117 141.823 69.3996V63.513ZM153.411 76.5196C153.373 76.5944 153.355 76.6878 153.355 76.8V78.0894C153.317 78.2389 153.298 78.3884 153.298 78.5379C153.298 78.6501 153.298 78.7622 153.298 78.8743C153.298 78.9491 153.28 79.0051 153.242 79.0425C153.242 79.0799 153.242 79.1359 153.242 79.2107V79.5471C153.205 79.6218 153.186 79.7153 153.186 79.8274C153.186 79.9021 153.167 79.9769 153.13 80.0516C153.13 80.1264 153.111 80.1824 153.073 80.2198V80.3319L153.017 80.4441C153.017 80.4441 153.055 80.4254 153.13 80.388V80.3319L153.186 80.2759C153.223 80.2385 153.242 80.2198 153.242 80.2198C153.242 80.1824 153.261 80.1451 153.298 80.1077C153.336 80.0329 153.373 79.9582 153.411 79.8834C153.448 79.7713 153.486 79.6779 153.523 79.6031C153.561 79.5284 153.58 79.491 153.58 79.491C153.58 79.4536 153.598 79.3976 153.636 79.3228C153.673 79.2481 153.692 79.192 153.692 79.1546C153.692 79.1172 153.711 79.0612 153.748 78.9864C153.786 78.9117 153.805 78.8556 153.805 78.8182C153.805 78.7435 153.823 78.6687 153.861 78.594C153.861 78.5192 153.861 78.4632 153.861 78.4258C153.898 78.351 153.917 78.2763 153.917 78.2015C153.955 78.052 153.973 77.9025 153.973 77.753C154.011 77.6035 154.048 77.454 154.086 77.3045C154.123 77.1924 154.142 77.0242 154.142 76.8C154.142 76.7252 154.142 76.6505 154.142 76.5757C154.18 76.501 154.198 76.4262 154.198 76.3515V74.3892C154.198 74.165 154.18 73.9968 154.142 73.8847V73.6604C154.142 73.5857 154.123 73.5483 154.086 73.5483C154.086 73.5109 154.086 73.4735 154.086 73.4362C154.086 73.2493 154.067 73.0998 154.03 72.9877C154.03 72.8382 154.011 72.6887 153.973 72.5392C153.936 72.4644 153.917 72.3896 153.917 72.3149C153.917 72.2401 153.898 72.1654 153.861 72.0906C153.861 72.0533 153.842 72.0346 153.805 72.0346C153.805 71.9972 153.805 71.9598 153.805 71.9225C153.805 71.8851 153.786 71.8664 153.748 71.8664C153.748 71.829 153.748 71.7916 153.748 71.7543C153.711 71.6795 153.692 71.6235 153.692 71.5861C153.692 71.5487 153.673 71.4926 153.636 71.4179C153.598 71.3431 153.58 71.2871 153.58 71.2497C153.58 71.2123 153.561 71.1563 153.523 71.0815C153.486 71.0441 153.467 71.0068 153.467 70.9694C153.467 70.932 153.448 70.8946 153.411 70.8573C153.336 70.7077 153.298 70.633 153.298 70.633C153.261 70.5956 153.242 70.5769 153.242 70.5769C153.242 70.5396 153.223 70.5022 153.186 70.4648C153.148 70.4274 153.13 70.3901 153.13 70.3527L153.017 70.2406C153.017 70.2406 153.036 70.2779 153.073 70.3527V70.4648C153.111 70.5022 153.13 70.5769 153.13 70.6891C153.13 70.7264 153.13 70.7638 153.13 70.8012C153.167 70.8012 153.186 70.8386 153.186 70.9133C153.186 71.0254 153.205 71.1189 153.242 71.1936V71.4739C153.242 71.5487 153.242 71.6048 153.242 71.6421C153.28 71.6795 153.298 71.7356 153.298 71.8103C153.298 72.1467 153.317 72.4083 153.355 72.5952V73.4922C153.392 73.6791 153.411 73.9781 153.411 74.3892V76.5196ZM151.104 73.6044C151.104 73.1185 151.086 72.5205 151.048 71.8103C151.011 71.1002 150.879 70.4274 150.654 69.792C150.429 69.1567 150.073 68.6147 149.586 68.1662C149.136 67.6803 148.461 67.4374 147.561 67.4374H145.535C145.123 67.4748 144.767 67.643 144.467 67.942C144.167 68.241 144.017 68.596 144.017 69.0072V81.6214C144.017 82.0325 144.167 82.3876 144.467 82.6866C144.767 82.9856 145.123 83.1351 145.535 83.1351H147.561C148.461 83.1351 149.136 82.9109 149.586 82.4624C150.073 82.0139 150.429 81.4719 150.654 80.8365C150.879 80.1638 151.011 79.491 151.048 78.8182C151.086 78.1081 151.104 77.5101 151.104 77.0242V73.6044ZM151.104 55.2717C151.104 54.7858 151.086 54.1878 151.048 53.4776C151.011 52.7675 150.879 52.0947 150.654 51.4593C150.429 50.824 150.073 50.282 149.586 49.8335C149.136 49.3476 148.461 49.1047 147.561 49.1047H145.535C145.123 49.1421 144.767 49.3103 144.467 49.6093C144.167 49.9083 144.017 50.2633 144.017 50.6745V63.2887C144.017 63.6998 144.167 64.0549 144.467 64.3539C144.767 64.6529 145.123 64.8024 145.535 64.8024H147.561C148.461 64.8024 149.136 64.5782 149.586 64.1297C150.073 63.6811 150.429 63.1392 150.654 62.5038C150.879 61.8311 151.011 61.1583 151.048 60.4855C151.086 59.7754 151.104 59.1774 151.104 58.6915V55.2717ZM153.523 60.8219C153.561 60.7472 153.58 60.7098 153.58 60.7098C153.58 60.6724 153.598 60.6164 153.636 60.5416C153.673 60.4669 153.692 60.4108 153.692 60.3734C153.692 60.2987 153.711 60.2239 153.748 60.1492C153.786 60.0744 153.805 60.0183 153.805 59.981C153.805 59.9436 153.823 59.8875 153.861 59.8128C153.861 59.738 153.861 59.682 153.861 59.6446C153.898 59.5698 153.917 59.4951 153.917 59.4203C153.955 59.2708 153.973 59.1213 153.973 58.9718C154.011 58.8223 154.048 58.6728 154.086 58.5233C154.123 58.4112 154.142 58.243 154.142 58.0188C154.142 57.944 154.142 57.8693 154.142 57.7945C154.18 57.7198 154.198 57.645 154.198 57.5703V55.608C154.198 55.3838 154.18 55.2156 154.142 55.1035V54.8792C154.142 54.8045 154.123 54.7671 154.086 54.7671C154.086 54.7297 154.086 54.6736 154.086 54.5989C154.086 54.412 154.048 54.1317 153.973 53.7579C153.936 53.6832 153.917 53.6084 153.917 53.5337C153.917 53.4589 153.898 53.3842 153.861 53.3094C153.861 53.2721 153.842 53.2534 153.805 53.2534C153.805 53.216 153.805 53.1786 153.805 53.1412C153.805 53.1039 153.786 53.0852 153.748 53.0852C153.748 53.0478 153.748 53.0104 153.748 52.9731C153.711 52.8983 153.692 52.8422 153.692 52.8049C153.692 52.7675 153.673 52.7114 153.636 52.6367C153.598 52.5619 153.58 52.5059 153.58 52.4685C153.58 52.4311 153.561 52.3751 153.523 52.3003C153.486 52.2629 153.467 52.2255 153.467 52.1882C153.467 52.1508 153.448 52.1134 153.411 52.076C153.336 51.9265 153.298 51.8518 153.298 51.8518C153.261 51.8144 153.242 51.7957 153.242 51.7957C153.242 51.7584 153.223 51.721 153.186 51.6836C153.148 51.6462 153.13 51.6089 153.13 51.5715C153.092 51.5341 153.073 51.4967 153.073 51.4593H153.017C153.017 51.4593 153.036 51.4967 153.073 51.5715V51.6836C153.111 51.721 153.13 51.7957 153.13 51.9079C153.13 51.9452 153.13 51.9826 153.13 52.02C153.167 52.02 153.186 52.0574 153.186 52.1321C153.186 52.2442 153.205 52.3377 153.242 52.4124V52.6927C153.242 52.7675 153.242 52.8236 153.242 52.8609C153.28 52.8983 153.298 52.9544 153.298 53.0291C153.298 53.3655 153.317 53.6271 153.355 53.814V54.711C153.392 54.8979 153.411 55.1969 153.411 55.608V57.7384C153.373 57.8132 153.355 57.9066 153.355 58.0188V59.3082C153.317 59.4577 153.298 59.6072 153.298 59.7567C153.298 59.8688 153.298 59.981 153.298 60.0931C153.298 60.1679 153.28 60.2239 153.242 60.2613C153.242 60.2987 153.242 60.3547 153.242 60.4295V60.7659C153.205 60.8406 153.186 60.934 153.186 61.0462C153.186 61.1209 153.167 61.1957 153.13 61.2704C153.13 61.3452 153.111 61.4012 153.073 61.4386V61.5507L153.017 61.6629C153.017 61.6629 153.055 61.6442 153.13 61.6068V61.5507L153.186 61.4947C153.223 61.4573 153.242 61.4386 153.242 61.4386C153.242 61.4012 153.261 61.3639 153.298 61.3265C153.336 61.2517 153.373 61.177 153.411 61.1022C153.448 60.9901 153.486 60.8967 153.523 60.8219Z" fill="#F4EDE8"/>
<path d="M175.509 82.3502C175.509 83.023 175.566 83.5276 175.678 83.8639C175.828 84.1629 175.978 84.4059 176.128 84.5928C176.278 84.7423 176.409 84.8918 176.522 85.0413C176.672 85.1908 176.747 85.4337 176.747 85.7701H161.446C161.221 85.7701 161.015 85.6767 160.827 85.4898C160.64 85.3029 160.546 85.0973 160.546 84.8731C160.546 85.0973 160.452 85.3029 160.265 85.4898C160.115 85.6767 159.909 85.7701 159.646 85.7701H156.721C156.721 85.4337 156.777 85.1908 156.89 85.0413C157.04 84.8918 157.19 84.7423 157.34 84.5928C157.49 84.4059 157.621 84.1629 157.733 83.8639C157.883 83.5649 157.958 83.0977 157.958 82.4624V68.7829C157.846 67.6243 157.321 66.7833 156.383 66.2601C156.796 65.9984 157.321 65.8676 157.958 65.8676V49.8335C157.958 49.1981 157.883 48.7309 157.733 48.4319C157.621 48.1329 157.49 47.9087 157.34 47.7592C157.19 47.5723 157.04 47.4041 156.89 47.2546C156.777 47.1051 156.721 46.8622 156.721 46.5258H159.702C159.927 46.5258 160.134 46.6192 160.321 46.8061C160.509 46.9556 160.602 47.1612 160.602 47.4228C160.602 46.8248 160.902 46.5258 161.502 46.5258H176.747C176.747 46.8622 176.672 47.1051 176.522 47.2546C176.409 47.4041 176.278 47.5723 176.128 47.7592C175.978 47.9087 175.828 48.1516 175.678 48.488C175.566 48.787 175.509 49.2729 175.509 49.9456V57.4021C174.197 57.4021 173.184 57.1591 172.472 56.6732C171.797 56.15 171.29 55.5707 170.953 54.9353C170.54 54.2251 170.315 53.3842 170.278 52.4124V50.6745C170.278 50.2633 170.128 49.9083 169.828 49.6093C169.528 49.3103 169.172 49.1421 168.759 49.1047H164.709C164.296 49.1421 163.94 49.3103 163.64 49.6093C163.34 49.9083 163.19 50.2633 163.19 50.6745V63.2887C163.19 63.6998 163.34 64.0549 163.64 64.3539C163.94 64.6529 164.296 64.8024 164.709 64.8024H165.103C165.515 64.8024 165.853 64.6529 166.115 64.3539C166.415 64.0549 166.565 63.6998 166.565 63.2887V63.2326C166.603 62.672 166.753 62.1861 167.015 61.775C167.24 61.4012 167.578 61.0649 168.028 60.7659C168.478 60.4669 169.134 60.3174 169.997 60.3174V71.9225C169.134 71.9225 168.478 71.773 168.028 71.4739C167.578 71.1749 167.24 70.8386 167.015 70.4648C166.753 70.0537 166.603 69.5678 166.565 69.0072C166.565 68.596 166.415 68.241 166.115 67.942C165.853 67.643 165.515 67.4748 165.103 67.4374H164.709C164.296 67.4748 163.94 67.643 163.64 67.942C163.34 68.241 163.19 68.596 163.19 69.0072V81.6214C163.19 82.0325 163.34 82.3876 163.64 82.6866C163.94 82.9856 164.296 83.1351 164.709 83.1351H168.759C169.172 83.1351 169.528 82.9856 169.828 82.6866C170.128 82.3876 170.278 82.0325 170.278 81.6214V79.8274C170.315 78.893 170.54 78.0707 170.953 77.3606C171.29 76.7252 171.797 76.1459 172.472 75.6226C173.184 75.0994 174.197 74.8377 175.509 74.8377V82.3502ZM160.996 63.513C160.996 63.3261 160.977 63.1205 160.94 62.8963C160.94 62.672 160.94 62.4478 160.94 62.2235V60.9901C160.902 60.1679 160.884 59.383 160.884 58.6355C160.884 57.8879 160.865 57.1778 160.827 56.505C160.79 56.206 160.771 55.907 160.771 55.608C160.771 55.309 160.752 55.0287 160.715 54.7671C160.715 54.4681 160.696 54.2065 160.659 53.9822C160.659 53.7579 160.659 53.5524 160.659 53.3655C160.659 53.1786 160.64 53.0104 160.602 52.8609C160.602 52.7114 160.602 52.5806 160.602 52.4685V52.1882C160.565 52.1882 160.546 52.2069 160.546 52.2442V52.4685C160.546 52.5806 160.527 52.7114 160.49 52.8609C160.49 53.0104 160.49 53.1786 160.49 53.3655C160.49 53.5524 160.471 53.7579 160.434 53.9822C160.434 54.2065 160.434 54.4681 160.434 54.7671C160.396 55.0287 160.377 55.309 160.377 55.608C160.377 55.907 160.359 56.206 160.321 56.505C160.284 57.1778 160.265 57.8879 160.265 58.6355C160.265 59.383 160.246 60.1679 160.209 60.9901V62.2235C160.209 62.4478 160.19 62.672 160.152 62.8963C160.152 63.1205 160.152 63.3261 160.152 63.513V68.7268C160.152 69.0259 160.171 69.2501 160.209 69.3996V71.2497C160.209 71.6608 160.209 72.072 160.209 72.4831C160.246 72.8568 160.265 73.2306 160.265 73.6044C160.265 74.0155 160.265 74.3892 160.265 74.7256C160.302 75.062 160.321 75.3984 160.321 75.7348C160.359 76.0711 160.377 76.3888 160.377 76.6878C160.377 76.9495 160.396 77.2298 160.434 77.5288C160.434 77.7904 160.434 78.0334 160.434 78.2576C160.471 78.4819 160.49 78.6874 160.49 78.8743C160.49 79.0612 160.49 79.2481 160.49 79.4349C160.527 79.5844 160.546 79.6966 160.546 79.7713V80.0516C160.546 80.089 160.565 80.1077 160.602 80.1077V79.7713C160.602 79.6966 160.602 79.5844 160.602 79.4349C160.64 79.2481 160.659 79.0612 160.659 78.8743C160.659 78.6874 160.659 78.4819 160.659 78.2576C160.696 78.0334 160.715 77.7904 160.715 77.5288C160.752 77.2298 160.771 76.9495 160.771 76.6878C160.771 76.3888 160.79 76.0711 160.827 75.7348C160.827 75.3984 160.827 75.062 160.827 74.7256C160.865 74.3892 160.884 74.0155 160.884 73.6044C160.884 73.2306 160.884 72.8568 160.884 72.4831C160.921 72.072 160.94 71.6608 160.94 71.2497V70.0163C160.94 69.7173 160.959 69.5117 160.996 69.3996V63.513Z" fill="#F4EDE8"/>
<path d="M198.139 88.1247C198.551 88.1995 198.832 88.3303 198.983 88.5172C199.17 88.7041 199.301 88.8909 199.376 89.0778C199.451 89.3021 199.489 89.545 199.489 89.8066C198.289 89.8066 197.164 89.6571 196.114 89.3581C195.064 89.0591 194.126 88.5733 193.301 87.9005C192.513 87.2277 191.876 86.3494 191.388 85.2655C190.938 84.1816 190.713 82.8548 190.713 81.285V73.6044C190.713 73.1185 190.695 72.5205 190.657 71.8103C190.62 71.1002 190.488 70.4274 190.263 69.792C190.038 69.1567 189.682 68.6147 189.195 68.1662C188.745 67.6803 188.069 67.4374 187.169 67.4374H184.863C184.526 67.5121 184.226 67.699 183.963 67.998C183.738 68.2597 183.626 68.5773 183.626 68.9511V82.3502C183.626 83.023 183.682 83.5276 183.794 83.8639C183.944 84.1629 184.094 84.4059 184.244 84.5928C184.394 84.7423 184.526 84.8918 184.638 85.0413C184.788 85.1908 184.863 85.4337 184.863 85.7701H181.882C181.657 85.7701 181.45 85.6767 181.263 85.4898C181.075 85.3029 180.982 85.0973 180.982 84.8731C180.982 85.0973 180.888 85.3029 180.7 85.4898C180.55 85.6767 180.344 85.7701 180.082 85.7701H177.156C177.156 85.4337 177.213 85.1908 177.325 85.0413C177.475 84.8918 177.625 84.7423 177.775 84.5928C177.925 84.4059 178.057 84.1629 178.169 83.8639C178.319 83.5649 178.394 83.0977 178.394 82.4624V68.7829C178.282 67.6243 177.756 66.7833 176.819 66.2601C177.231 65.9984 177.756 65.8676 178.394 65.8676V49.8335C178.394 49.1981 178.319 48.7309 178.169 48.4319C178.057 48.1329 177.925 47.9087 177.775 47.7592C177.625 47.5723 177.475 47.4041 177.325 47.2546C177.213 47.1051 177.156 46.8622 177.156 46.5258H180.138C180.363 46.5258 180.569 46.6192 180.757 46.8061C180.944 46.9556 181.038 47.1612 181.038 47.4228C181.038 46.8248 181.338 46.5258 181.938 46.5258H187.226C188.426 46.5258 189.551 46.75 190.601 47.1985C191.651 47.647 192.57 48.2637 193.357 49.0486C194.145 49.7961 194.764 50.6932 195.214 51.7397C195.664 52.7862 195.907 53.8888 195.945 55.0474V58.6915C195.945 60.2613 195.57 61.7002 194.82 63.0084C194.07 64.3165 193.057 65.363 191.782 66.1479C193.057 66.8954 194.07 67.942 194.82 69.2875C195.57 70.5956 195.945 72.0346 195.945 73.6044V81.0608C195.945 81.8457 195.945 82.6492 195.945 83.4715C195.982 84.2564 196.076 84.9852 196.226 85.658C196.376 86.2933 196.601 86.8353 196.901 87.2838C197.201 87.7323 197.614 88.0126 198.139 88.1247ZM193.02 57.7384C192.982 57.8132 192.963 57.9066 192.963 58.0188V59.3082C192.926 59.4577 192.907 59.6072 192.907 59.7567C192.907 59.8688 192.907 59.981 192.907 60.0931C192.907 60.1679 192.888 60.2239 192.851 60.2613C192.851 60.2987 192.851 60.3547 192.851 60.4295V60.7659C192.813 60.8406 192.795 60.934 192.795 61.0462C192.795 61.1209 192.776 61.1957 192.738 61.2704C192.738 61.3452 192.72 61.4012 192.682 61.4386V61.5507L192.626 61.6629C192.626 61.6629 192.663 61.6442 192.738 61.6068V61.5507L192.795 61.4947C192.832 61.4573 192.851 61.4386 192.851 61.4386C192.851 61.4012 192.87 61.3639 192.907 61.3265C192.945 61.2517 192.982 61.177 193.02 61.1022C193.057 60.9901 193.095 60.8967 193.132 60.8219C193.17 60.7472 193.188 60.7098 193.188 60.7098C193.188 60.6724 193.207 60.6164 193.245 60.5416C193.282 60.4669 193.301 60.4108 193.301 60.3734C193.301 60.2987 193.32 60.2239 193.357 60.1492C193.395 60.0744 193.413 60.0183 193.413 59.981C193.413 59.9436 193.432 59.8875 193.47 59.8128C193.47 59.738 193.47 59.682 193.47 59.6446C193.507 59.5698 193.526 59.4951 193.526 59.4203C193.564 59.2708 193.582 59.1213 193.582 58.9718C193.62 58.8223 193.657 58.6728 193.695 58.5233C193.732 58.4112 193.751 58.243 193.751 58.0188C193.751 57.944 193.751 57.8693 193.751 57.7945C193.789 57.7198 193.807 57.645 193.807 57.5703V55.608C193.807 55.3838 193.789 55.2156 193.751 55.1035V54.8792C193.751 54.8045 193.732 54.7671 193.695 54.7671C193.695 54.7297 193.695 54.6736 193.695 54.5989C193.695 54.412 193.657 54.1317 193.582 53.7579C193.545 53.6832 193.526 53.6084 193.526 53.5337C193.526 53.4589 193.507 53.3842 193.47 53.3094C193.47 53.2721 193.451 53.2534 193.413 53.2534C193.413 53.216 193.413 53.1786 193.413 53.1412C193.413 53.1039 193.395 53.0852 193.357 53.0852C193.357 53.0478 193.357 53.0104 193.357 52.9731C193.32 52.8983 193.301 52.8422 193.301 52.8049C193.301 52.7675 193.282 52.7114 193.245 52.6367C193.207 52.5619 193.188 52.5059 193.188 52.4685C193.188 52.4311 193.17 52.3751 193.132 52.3003C193.095 52.2629 193.076 52.2255 193.076 52.1882C193.076 52.1508 193.057 52.1134 193.02 52.076C192.945 51.9265 192.907 51.8518 192.907 51.8518C192.87 51.8144 192.851 51.7957 192.851 51.7957C192.851 51.7584 192.832 51.721 192.795 51.6836C192.757 51.6462 192.738 51.6089 192.738 51.5715C192.701 51.5341 192.682 51.4967 192.682 51.4593H192.626C192.626 51.4593 192.645 51.4967 192.682 51.5715V51.6836C192.72 51.721 192.738 51.7957 192.738 51.9079C192.738 51.9452 192.738 51.9826 192.738 52.02C192.776 52.02 192.795 52.0574 192.795 52.1321C192.795 52.2442 192.813 52.3377 192.851 52.4124V52.6927C192.851 52.7675 192.851 52.8236 192.851 52.8609C192.888 52.8983 192.907 52.9544 192.907 53.0291C192.907 53.3655 192.926 53.6271 192.963 53.814V54.711C193.001 54.8979 193.02 55.1969 193.02 55.608V57.7384ZM181.432 63.513C181.432 63.3261 181.413 63.1205 181.375 62.8963C181.375 62.672 181.375 62.4478 181.375 62.2235V60.9901C181.338 60.1679 181.319 59.383 181.319 58.6355C181.319 57.8879 181.3 57.1778 181.263 56.505C181.225 56.206 181.207 55.907 181.207 55.608C181.207 55.309 181.188 55.0287 181.15 54.7671C181.15 54.4681 181.132 54.2065 181.094 53.9822C181.094 53.7579 181.094 53.5524 181.094 53.3655C181.094 53.1786 181.075 53.0104 181.038 52.8609C181.038 52.7114 181.038 52.5806 181.038 52.4685V52.1882C181 52.1882 180.982 52.2069 180.982 52.2442V52.4685C180.982 52.5806 180.963 52.7114 180.925 52.8609C180.925 53.0104 180.925 53.1786 180.925 53.3655C180.925 53.5524 180.907 53.7579 180.869 53.9822C180.869 54.2065 180.869 54.4681 180.869 54.7671C180.832 55.0287 180.813 55.309 180.813 55.608C180.813 55.907 180.794 56.206 180.757 56.505C180.719 57.1778 180.7 57.8879 180.7 58.6355C180.7 59.383 180.682 60.1679 180.644 60.9901V62.2235C180.644 62.4478 180.625 62.672 180.588 62.8963C180.588 63.1205 180.588 63.3261 180.588 63.513V68.7268C180.588 69.0259 180.607 69.2501 180.644 69.3996V71.2497C180.644 71.6608 180.644 72.072 180.644 72.4831C180.682 72.8568 180.7 73.2306 180.7 73.6044C180.7 74.0155 180.7 74.3892 180.7 74.7256C180.738 75.062 180.757 75.3984 180.757 75.7348C180.794 76.0711 180.813 76.3888 180.813 76.6878C180.813 76.9495 180.832 77.2298 180.869 77.5288C180.869 77.7904 180.869 78.0334 180.869 78.2576C180.907 78.4819 180.925 78.6874 180.925 78.8743C180.925 79.0612 180.925 79.2481 180.925 79.4349C180.963 79.5844 180.982 79.6966 180.982 79.7713V80.0516C180.982 80.089 181 80.1077 181.038 80.1077V79.7713C181.038 79.6966 181.038 79.5844 181.038 79.4349C181.075 79.2481 181.094 79.0612 181.094 78.8743C181.094 78.6874 181.094 78.4819 181.094 78.2576C181.132 78.0334 181.15 77.7904 181.15 77.5288C181.188 77.2298 181.207 76.9495 181.207 76.6878C181.207 76.3888 181.225 76.0711 181.263 75.7348C181.263 75.3984 181.263 75.062 181.263 74.7256C181.3 74.3892 181.319 74.0155 181.319 73.6044C181.319 73.2306 181.319 72.8568 181.319 72.4831C181.357 72.072 181.375 71.6608 181.375 71.2497V70.0163C181.375 69.7173 181.394 69.5117 181.432 69.3996V63.513ZM190.713 55.2717C190.713 54.7858 190.695 54.1878 190.657 53.4776C190.62 52.7675 190.488 52.0947 190.263 51.4593C190.038 50.824 189.682 50.282 189.195 49.8335C188.745 49.3476 188.069 49.1047 187.169 49.1047H185.144C184.732 49.1421 184.376 49.3103 184.076 49.6093C183.776 49.9083 183.626 50.2633 183.626 50.6745V63.2887C183.626 63.6998 183.776 64.0549 184.076 64.3539C184.376 64.6529 184.732 64.8024 185.144 64.8024H187.169C188.069 64.8024 188.745 64.5782 189.195 64.1297C189.682 63.6811 190.038 63.1392 190.263 62.5038C190.488 61.8311 190.62 61.1583 190.657 60.4855C190.695 59.7754 190.713 59.1774 190.713 58.6915V55.2717ZM194.482 85.9943C194.482 85.9943 194.464 85.9757 194.426 85.9383L194.37 85.8822C194.332 85.8075 194.295 85.7327 194.257 85.658C194.257 85.5832 194.22 85.5085 194.145 85.4337C194.107 85.3216 194.07 85.2095 194.032 85.0973C193.995 84.9478 193.957 84.7796 193.92 84.5928C193.845 84.219 193.807 83.8639 193.807 83.5276C193.77 83.3407 193.751 83.1538 193.751 82.9669C193.751 82.7427 193.751 82.4997 193.751 82.2381V79.2667C193.751 79.0051 193.751 78.7435 193.751 78.4819C193.751 78.2202 193.77 77.9399 193.807 77.6409C193.807 77.3793 193.807 77.1177 193.807 76.856C193.807 76.5944 193.789 76.3328 193.751 76.0711V75.2863C193.751 74.9125 193.732 74.6509 193.695 74.5014C193.695 74.2397 193.676 73.9968 193.639 73.7725C193.639 73.5109 193.62 73.268 193.582 73.0437C193.507 72.5205 193.432 72.072 193.357 71.6982C193.32 71.5113 193.282 71.3431 193.245 71.1936C193.207 71.0068 193.151 70.8199 193.076 70.633C193.001 70.4461 192.945 70.2966 192.907 70.1845C192.87 70.0724 192.813 69.9602 192.738 69.8481C192.663 69.736 192.607 69.6425 192.57 69.5678C192.532 69.493 192.495 69.4183 192.457 69.3435C192.42 69.3435 192.382 69.3249 192.345 69.2875C192.307 69.2875 192.288 69.2688 192.288 69.2314L192.345 69.2875C192.345 69.3249 192.363 69.3622 192.401 69.3996C192.401 69.437 192.401 69.4744 192.401 69.5117C192.438 69.5117 192.457 69.5491 192.457 69.6239C192.495 69.6612 192.513 69.6986 192.513 69.736C192.513 69.7734 192.532 69.8294 192.57 69.9042C192.607 70.0537 192.663 70.3153 192.738 70.6891C192.776 70.8759 192.795 71.0628 192.795 71.2497C192.832 71.4366 192.87 71.6235 192.907 71.8103C192.907 71.9972 192.907 72.2028 192.907 72.427C192.945 72.6139 192.963 72.8382 192.963 73.0998V80.0516C192.963 80.2011 192.963 80.3319 192.963 80.4441C193.001 80.5562 193.02 80.687 193.02 80.8365C193.02 81.0981 193.02 81.3598 193.02 81.6214C193.057 81.8457 193.095 82.0699 193.132 82.2942C193.17 82.5184 193.188 82.7427 193.188 82.9669C193.226 83.1912 193.263 83.3967 193.301 83.5836C193.376 83.8079 193.432 84.0134 193.47 84.2003C193.507 84.3498 193.564 84.518 193.639 84.7049C193.714 84.8918 193.77 85.0413 193.807 85.1534C193.845 85.2655 193.901 85.3776 193.976 85.4898L194.089 85.6019C194.126 85.6393 194.145 85.6767 194.145 85.714C194.145 85.714 194.164 85.7327 194.201 85.7701L194.426 85.9943H194.482Z" fill="#F4EDE8"/>
<ellipse rx="3.01354" ry="3.00339" transform="matrix(1 0 0 -1 210.948 67.0288)" fill="#999591"/>
<ellipse rx="3.01354" ry="3.00339" transform="matrix(1 0 0 -1 19.0858 67.0288)" fill="#999591"/>
</svg>
